<svg xmlns="http://www.w3.org/2000/svg" viewBox="0 0 64 64"><defs><clipPath id="t"><path d="M32 8.5L55.5 21H8.5Z"/><rect x="9.5" y="21" width="45.00" height="5.0" rx=".6"/><rect x="13" y="27.8" width="6.00" height="17.2" rx=".6"/><rect x="23.67" y="27.8" width="6.00" height="17.2" rx=".6"/><rect x="34.33" y="27.8" width="6.00" height="17.2" rx=".6"/><rect x="45" y="27.8" width="6.00" height="17.2" rx=".6"/><rect x="12" y="26" width="8.00" height="1.8" rx=".6"/><rect x="22.67" y="26" width="8.00" height="1.8" rx=".6"/><rect x="33.33" y="26" width="8.00" height="1.8" rx=".6"/><rect x="44" y="26" width="8.00" height="1.8" rx=".6"/><rect x="8.5" y="45" width="47.00" height="4.0" rx=".6"/><rect x="5.5" y="49" width="53.00" height="5.0" rx=".6"/></clipPath></defs><rect width="64" height="64" rx="15" fill="#4a6642"/><g fill="#f6f4ef"><path d="M32 8.5L55.5 21H8.5Z"/><rect x="9.5" y="21" width="45.00" height="5.0" rx=".6"/><rect x="13" y="27.8" width="6.00" height="17.2" rx=".6"/><rect x="23.67" y="27.8" width="6.00" height="17.2" rx=".6"/><rect x="34.33" y="27.8" width="6.00" height="17.2" rx=".6"/><rect x="45" y="27.8" width="6.00" height="17.2" rx=".6"/><rect x="12" y="26" width="8.00" height="1.8" rx=".6"/><rect x="22.67" y="26" width="8.00" height="1.8" rx=".6"/><rect x="33.33" y="26" width="8.00" height="1.8" rx=".6"/><rect x="44" y="26" width="8.00" height="1.8" rx=".6"/><rect x="8.5" y="45" width="47.00" height="4.0" rx=".6"/><rect x="5.5" y="49" width="53.00" height="5.0" rx=".6"/></g><g clip-path="url(#t)" fill="none" stroke="#a9a49b" stroke-width=".7" stroke-linecap="round"><path d="M15 28.6C15.00 31.22 15.00 41.68 15 44.3"/><path d="M25.67 28.6C25.67 31.22 25.67 41.68 25.67 44.3"/><path d="M36.33 28.6C36.33 31.22 36.33 41.68 36.33 44.3"/><path d="M47 28.6C47.00 31.22 47.00 41.68 47 44.3"/><path d="M17 28.6C17.00 31.22 17.00 41.68 17 44.3"/><path d="M27.67 28.6C27.67 31.22 27.67 41.68 27.67 44.3"/><path d="M38.33 28.6C38.33 31.22 38.33 41.68 38.33 44.3"/><path d="M49 28.6C49.00 31.22 49.00 41.68 49 44.3"/></g><g fill="none" stroke="#2a3c25" stroke-width="1.3" stroke-linejoin="round"><path d="M32 8.5L55.5 21H8.5Z"/><rect x="9.5" y="21" width="45.00" height="5.0" rx=".6"/><rect x="13" y="27.8" width="6.00" height="17.2" rx=".6"/><rect x="23.67" y="27.8" width="6.00" height="17.2" rx=".6"/><rect x="34.33" y="27.8" width="6.00" height="17.2" rx=".6"/><rect x="45" y="27.8" width="6.00" height="17.2" rx=".6"/><rect x="12" y="26" width="8.00" height="1.8" rx=".6"/><rect x="22.67" y="26" width="8.00" height="1.8" rx=".6"/><rect x="33.33" y="26" width="8.00" height="1.8" rx=".6"/><rect x="44" y="26" width="8.00" height="1.8" rx=".6"/><rect x="8.5" y="45" width="47.00" height="4.0" rx=".6"/><rect x="5.5" y="49" width="53.00" height="5.0" rx=".6"/></g><path d="M32 12.5 L38 17.2 H26 Z" fill="none" stroke="#a9a49b" stroke-width=".8" stroke-linejoin="round"/></svg>