<svg xmlns="http://www.w3.org/2000/svg" xmlns:xlink="http://www.w3.org/1999/xlink" contentStyleType="text/css" data-diagram-type="DESCRIPTION" height="1126px" preserveAspectRatio="none" style="width:736px;height:1126px;background:#FFFFFF;" version="1.1" viewBox="0 0 736 1126" width="736px" zoomAndPan="magnify"><title>Agora &#8212; Kullan&#305;m durumlar&#305; (2/2): y&#246;netici ve otomatik i&#351;ler</title><defs/><g><g class="title" data-source-line="2"><text fill="#000000" font-family="Inter" font-size="14" font-weight="bold" lengthAdjust="spacing" textLength="407.9482" x="157.2759" y="23.5625">Agora &#8212; Kullan&#305;m durumlar&#305; (2/2): y&#246;netici ve otomatik i&#351;ler</text></g><!--cluster Agora--><g class="cluster" data-entity="Agora" data-source-line="9" data-uid="ent0005" id="cluster_Agora"><rect fill="#FBFAF7" height="785" rx="4" ry="4" style="stroke:#A9A49B;stroke-width:1;" width="604.5" x="126" y="228.1995"/><text fill="#000000" font-family="Inter" font-size="13" font-weight="bold" lengthAdjust="spacing" textLength="38.7334" x="408.8833" y="242.7932">Agora</text></g><!--cluster Y?netim paneli (?ye aray?z?nden ayr?)--><g class="cluster" data-entity="Y.netim paneli ..ye aray.z.nden ayr.." data-source-line="10" data-uid="ent0006" id="cluster_Y.netim paneli ..ye aray.z.nden ayr.."><path d="M155,270.1995 L399.0288,270.1995 A6,6 0 0 1 403.0288,274.1995 L410.0288,291.9289 L675,291.9289 A4,4 0 0 1 679,295.9289 L679,695.1995 A4,4 0 0 1 675,699.1995 L155,699.1995 A4,4 0 0 1 151,695.1995 L151,274.1995 A4,4 0 0 1 155,270.1995" fill="#FBFAF7" style="stroke:#A9A49B;stroke-width:1.5;"/><line style="stroke:#A9A49B;stroke-width:1.5;" x1="151" x2="410.0288" y1="291.9289" y2="291.9289"/><text fill="#000000" font-family="Inter" font-size="13" font-weight="bold" lengthAdjust="spacing" textLength="246.0288" x="155" y="284.7932">Y&#246;netim paneli (&#252;ye aray&#252;z&#252;nden ayr&#305;)</text></g><!--cluster Otomatik i?ler--><g class="cluster" data-entity="Otomatik i.ler" data-source-line="19" data-uid="ent0014" id="cluster_Otomatik i.ler"><path d="M154,779.1995 L240.4292,779.1995 A6,6 0 0 1 244.4292,783.1995 L251.4292,800.9289 L702.5,800.9289 A4,4 0 0 1 706.5,804.9289 L706.5,985.1995 A4,4 0 0 1 702.5,989.1995 L154,989.1995 A4,4 0 0 1 150,985.1995 L150,783.1995 A4,4 0 0 1 154,779.1995" fill="#FBFAF7" style="stroke:#A9A49B;stroke-width:1.5;"/><line style="stroke:#A9A49B;stroke-width:1.5;" x1="150" x2="251.4292" y1="800.9289" y2="800.9289"/><text fill="#000000" font-family="Inter" font-size="13" font-weight="bold" lengthAdjust="spacing" textLength="88.4292" x="154" y="793.7932">Otomatik i&#351;ler</text></g><!--entity UC_gizle--><g class="entity" data-entity="UC_gizle" data-source-line="18" data-uid="ent0013" id="entity_UC_gizle"><ellipse cx="601.8584" cy="739.3587" fill="#F1F5EF" rx="77.8584" ry="23.6592" style="stroke:#4A6642;stroke-width:0.5;"/><text fill="#000000" font-family="Inter" font-size="13" lengthAdjust="spacing" textLength="113.9912" x="544.8628" y="738.1946">Gizleme / kald&#305;rma</text><text fill="#000000" font-family="Inter" font-size="13" lengthAdjust="spacing" textLength="72.6299" x="565.5435" y="753.9241">oylamas&#305; a&#231;</text></g><!--entity UC_ygiris--><g class="entity" data-entity="UC_ygiris" data-source-line="11" data-uid="ent0007" id="entity_UC_ygiris"><ellipse cx="601.9159" cy="453.2347" fill="#F1F5EF" rx="60.9159" ry="25.0353" style="stroke:#4A6642;stroke-width:0.5;"/><text fill="#000000" font-family="Inter" font-size="13" lengthAdjust="spacing" textLength="82.6846" x="560.5737" y="450.0326">Y&#246;netici giri&#351;i</text><text fill="#000000" font-family="Inter" font-size="13" lengthAdjust="spacing" textLength="79.4917" x="562.1701" y="465.762">(ayr&#305; oturum)</text></g><!--entity UC_uyeler--><g class="entity" data-entity="UC_uyeler" data-source-line="12" data-uid="ent0008" id="entity_UC_uyeler"><ellipse cx="277.4412" cy="576.1372" fill="#F1F5EF" rx="96.9412" ry="23.4378" style="stroke:#4A6642;stroke-width:0.5;"/><text fill="#000000" font-family="Inter" font-size="13" lengthAdjust="spacing" textLength="81.5991" x="236.6417" y="569.9571">&#220;yeleri y&#246;net</text><text fill="#000000" font-family="Inter" font-size="13" lengthAdjust="spacing" textLength="144.5996" x="205.1414" y="585.6866">(y&#246;netici yap, ask&#305;ya al)</text></g><!--entity UC_ysikayet--><g class="entity" data-entity="UC_ysikayet" data-source-line="13" data-uid="ent0009" id="entity_UC_ysikayet"><ellipse cx="277.4494" cy="659.3586" fill="#F1F5EF" rx="86.9494" ry="24.1592" style="stroke:#4A6642;stroke-width:0.5;"/><text fill="#000000" font-family="Inter" font-size="13" lengthAdjust="spacing" textLength="124.814" x="215.0424" y="657.4356">&#350;ikayeti oylamaya al</text><text fill="#000000" font-family="Inter" font-size="13" lengthAdjust="spacing" textLength="96.5986" x="229.1501" y="673.1651">ya da yersiz bul</text></g><!--entity UC_site--><g class="entity" data-entity="UC_site" data-source-line="14" data-uid="ent0010" id="entity_UC_site"><ellipse cx="277.6601" cy="329.2315" fill="#F1F5EF" rx="110.6601" ry="24.532" style="stroke:#4A6642;stroke-width:0.5;"/><text fill="#000000" font-family="Inter" font-size="13" lengthAdjust="spacing" textLength="177.8486" x="188.7358" y="329.3231">Toplu bildirim, site duyurusu,</text><text fill="#000000" font-family="Inter" font-size="13" lengthAdjust="spacing" textLength="95.0371" x="230.1416" y="345.0526">kategori, yedek</text></g><!--entity UC_onar--><g class="entity" data-entity="UC_onar" data-source-line="15" data-uid="ent0011" id="entity_UC_onar"><ellipse cx="277.3989" cy="412.2792" fill="#F1F5EF" rx="103.3989" ry="23.0798" style="stroke:#4A6642;stroke-width:0.5;"/><text fill="#000000" font-family="Inter" font-size="13" lengthAdjust="spacing" textLength="184.7549" x="185.0215" y="416.644">Kay&#305;t defterini denetle ve onar</text></g><!--entity UC_ilerlet--><g class="entity" data-entity="UC_ilerlet" data-source-line="16" data-uid="ent0012" id="entity_UC_ilerlet"><ellipse cx="277.7216" cy="494.2044" fill="#F1F5EF" rx="87.7216" ry="23.505" style="stroke:#4A6642;stroke-width:0.5;"/><text fill="#000000" font-family="Inter" font-size="13" lengthAdjust="spacing" textLength="76.3623" x="239.5405" y="488.1293">S&#252;reyi ilerlet</text><text fill="#000000" font-family="Inter" font-size="13" lengthAdjust="spacing" textLength="129.981" x="212.7311" y="503.8588">(yaln&#305;zca sunum kipi)</text></g><!--entity UC_gecir--><g class="entity" data-entity="UC_gecir" data-source-line="20" data-uid="ent0015" id="entity_UC_gecir"><ellipse cx="277.4561" cy="837.1907" fill="#F1F5EF" rx="107.9561" ry="23.9912" style="stroke:#4A6642;stroke-width:0.5;"/><text fill="#000000" font-family="Inter" font-size="13" lengthAdjust="spacing" textLength="161.167" x="196.8726" y="835.9709">Tart&#305;&#351;may&#305; oylamaya ge&#231;ir</text><text fill="#000000" font-family="Inter" font-size="13" lengthAdjust="spacing" textLength="107.834" x="223.5391" y="851.7004">(24 saat dolunca)</text></g><!--entity UC_tur--><g class="entity" data-entity="UC_tur" data-source-line="21" data-uid="ent0016" id="entity_UC_tur"><ellipse cx="277.3349" cy="921.3664" fill="#F1F5EF" rx="111.3349" ry="24.667" style="stroke:#4A6642;stroke-width:0.5;"/><text fill="#000000" font-family="Inter" font-size="13" lengthAdjust="spacing" textLength="103.8984" x="225.3857" y="914.5825">Turu sonu&#231;land&#305;r</text><text fill="#000000" font-family="Inter" font-size="13" lengthAdjust="spacing" textLength="177.3599" x="188.655" y="930.312">(eleme, ezici &#252;st&#252;nl&#252;k, karar)</text></g><!--entity UC_ozet--><g class="entity" data-entity="UC_ozet" data-source-line="22" data-uid="ent0017" id="entity_UC_ozet"><ellipse cx="601.9021" cy="946.2799" fill="#F1F5EF" rx="88.4021" ry="20.0804" style="stroke:#4A6642;stroke-width:0.5;"/><text fill="#000000" font-family="Inter" font-size="13" lengthAdjust="spacing" textLength="151.6201" x="526.0921" y="950.6446">Tart&#305;&#351;ma ve tur &#246;zeti yaz</text></g><!--entity UC_blok--><g class="entity" data-entity="UC_blok" data-source-line="23" data-uid="ent0018" id="entity_UC_blok"><ellipse cx="601.8985" cy="851.9791" fill="#F1F5EF" rx="86.8985" ry="19.7797" style="stroke:#4A6642;stroke-width:0.5;"/><text fill="#000000" font-family="Inter" font-size="13" lengthAdjust="spacing" textLength="148.2241" x="527.7864" y="856.3439">Olay&#305; kay&#305;t defterine yaz</text></g><!--entity Yon--><g class="entity" data-entity="Yon" data-source-line="5" data-uid="ent0002" id="entity_Yon"><ellipse cx="42.4272" cy="382.6995" fill="#F1F5EF" rx="8" ry="8" style="stroke:#3A5234;stroke-width:0.5;"/><path d="M42.4272,390.6995 L42.4272,417.6995 M29.4272,398.6995 L55.4272,398.6995 M42.4272,417.6995 L29.4272,432.6995 M42.4272,417.6995 L55.4272,432.6995" fill="none" style="stroke:#3A5234;stroke-width:0.5;"/><text fill="#000000" font-family="Inter" font-size="13" lengthAdjust="spacing" textLength="49.8545" x="17.5" y="446.7932">Y&#246;netici</text></g><!--entity Zam--><g class="entity" data-entity="Zam" data-source-line="6" data-uid="ent0003" id="entity_Zam"><ellipse cx="42.6609" cy="847.1995" fill="#F1F5EF" rx="8" ry="8" style="stroke:#3A5234;stroke-width:0.5;"/><path d="M42.6609,855.1995 L42.6609,882.1995 M29.6609,863.1995 L55.6609,863.1995 M42.6609,882.1995 L29.6609,897.1995 M42.6609,882.1995 L55.6609,897.1995" fill="none" style="stroke:#3A5234;stroke-width:0.5;"/><text fill="#000000" font-family="Inter" font-size="13" lengthAdjust="spacing" textLength="73.3218" x="6" y="911.2932">Zamanlay&#305;c&#305;</text><text fill="#000000" font-family="Inter" font-size="13" lengthAdjust="spacing" textLength="49.5752" x="6" y="927.0227">(sistem)</text></g><!--entity YZ--><g class="entity" data-entity="YZ" data-source-line="7" data-uid="ent0004" id="entity_YZ"><ellipse cx="277.3833" cy="1038.1995" fill="#F1F5EF" rx="8" ry="8" style="stroke:#3A5234;stroke-width:0.5;"/><path d="M277.3833,1046.1995 L277.3833,1073.1995 M264.3833,1054.1995 L290.3833,1054.1995 M277.3833,1073.1995 L264.3833,1088.1995 M277.3833,1073.1995 L290.3833,1088.1995" fill="none" style="stroke:#3A5234;stroke-width:0.5;"/><text fill="#000000" font-family="Inter" font-size="13" lengthAdjust="spacing" textLength="97.7666" x="228.5" y="1102.2932">Yapay zeka &#252;ye</text><text fill="#000000" font-family="Inter" font-size="13" lengthAdjust="spacing" textLength="39.8379" x="228.5" y="1118.0227">(Bilge)</text></g><g class="entity" data-entity="GMN37" data-source-line="48" data-uid="ent0038" id="entity_GMN37"><path d="M153.5,142.6995 L153.5,207.6174 A4,4 0 0 0 157.5,211.6174 L397.105,211.6174 A4,4 0 0 0 401.105,207.6174 L401.105,148.6995 L391.105,138.6995 L157.5,138.6995 A4,4 0 0 0 153.5,142.6995" fill="#EBE7DF" style="stroke:#A9A49B;stroke-width:0.5;"/><path d="M391.105,138.6995 L391.105,146.6995 A2,2 0 0 0 393.105,148.6995 L401.105,148.6995 L391.105,138.6995" fill="#EBE7DF" style="stroke:#A9A49B;stroke-width:1;"/><text fill="#000000" font-family="Inter" font-size="13" lengthAdjust="spacing" textLength="177.582" x="159.5" y="156.2932">Y&#246;netici kararlara kar&#305;&#351;amaz:</text><text fill="#000000" font-family="Inter" font-size="13" lengthAdjust="spacing" textLength="199.2339" x="159.5" y="172.0227">i&#231;erik silemez, uzman atayamaz,</text><text fill="#000000" font-family="Inter" font-size="13" lengthAdjust="spacing" textLength="213.0083" x="159.5" y="187.7522">oylamalar&#305;n sonucuna dokunamaz.</text><text fill="#000000" font-family="Inter" font-size="13" lengthAdjust="spacing" textLength="226.605" x="159.5" y="203.4817">Her i&#351;lemi &#351;effafl&#305;k g&#252;nl&#252;&#287;&#252;ne yaz&#305;l&#305;r.</text></g><!--link Yon to UC_ygiris--><g class="link" data-entity-1="Yon" data-entity-2="UC_ygiris" data-source-line="27" data-uid="lnk19" id="link_Yon_UC_ygiris"><path d="M47.53,374.1695 C55.98,302.5595 78.14,152.1395 118,121.1995 C217.53,43.9395 291.83,59.1595 401.5,121.1995 C522.07,189.4095 576.2515,357.0174 593.4115,422.1574" fill="none" id="Yon-to-UC_ygiris" style="stroke:#3A5234;stroke-width:1;"/><polygon fill="#3A5234" points="594.94,427.9595,596.5154,418.2374,593.6663,423.1244,588.7793,420.2753,594.94,427.9595" style="stroke:#3A5234;stroke-width:1;"/></g><!--link Yon to UC_uyeler--><g class="link" data-entity-1="Yon" data-entity-2="UC_uyeler" data-source-line="28" data-uid="lnk20" id="link_Yon_UC_uyeler"><path d="M57.49,450.4795 C69.47,478.0095 89.36,513.8895 118,535.1995 C138.64,550.5495 158.6592,558.7646 183.4692,564.7846" fill="none" id="Yon-to-UC_uyeler" style="stroke:#3A5234;stroke-width:1;"/><polygon fill="#3A5234" points="189.3,566.1995,181.497,560.19,184.441,565.0204,179.6106,567.9644,189.3,566.1995" style="stroke:#3A5234;stroke-width:1;"/></g><!--link Yon to UC_ysikayet--><g class="link" data-entity-1="Yon" data-entity-2="UC_ysikayet" data-source-line="29" data-uid="lnk21" id="link_Yon_UC_ysikayet"><path d="M46.88,450.5395 C53.02,496.7195 70.21,573.5095 118,617.1995 C138.69,636.1195 161.0669,645.4249 187.9769,651.2749" fill="none" id="Yon-to-UC_ysikayet" style="stroke:#3A5234;stroke-width:1;"/><polygon fill="#3A5234" points="193.84,652.5495,185.8951,646.7289,188.9541,651.4873,184.1957,654.5463,193.84,652.5495" style="stroke:#3A5234;stroke-width:1;"/></g><!--link Yon to UC_site--><g class="link" data-entity-1="Yon" data-entity-2="UC_site" data-source-line="30" data-uid="lnk22" id="link_Yon_UC_site"><path d="M67.59,396.9695 C81.83,388.4795 100.46,378.2295 118,371.1995 C143.24,361.0895 165.8865,354.1638 191.6565,347.5838" fill="none" id="Yon-to-UC_site" style="stroke:#3A5234;stroke-width:1;"/><polygon fill="#3A5234" points="197.47,346.0995,187.7602,344.4504,192.6254,347.3364,189.7394,352.2017,197.47,346.0995" style="stroke:#3A5234;stroke-width:1;"/></g><!--link Yon to UC_onar--><g class="link" data-entity-1="Yon" data-entity-2="UC_onar" data-source-line="31" data-uid="lnk23" id="link_Yon_UC_onar"><path d="M67.56,412.1995 C92.85,412.1995 128.36,412.1995 167.74,412.1995" fill="none" id="Yon-to-UC_onar" style="stroke:#3A5234;stroke-width:1;"/><polygon fill="#3A5234" points="173.74,412.1995,164.74,408.1995,168.74,412.1995,164.74,416.1995,173.74,412.1995" style="stroke:#3A5234;stroke-width:1;"/></g><!--link Yon to UC_ilerlet--><g class="link" data-entity-1="Yon" data-entity-2="UC_ilerlet" data-source-line="32" data-uid="lnk24" id="link_Yon_UC_ilerlet"><path d="M67.64,427.0295 C81.9,435.2995 100.52,445.2995 118,452.1995 C146.73,463.5395 173.7516,471.3848 202.0616,478.3048" fill="none" id="Yon-to-UC_ilerlet" style="stroke:#3A5234;stroke-width:1;"/><polygon fill="#3A5234" points="207.89,479.7295,200.0972,473.7068,203.033,478.5422,198.1976,481.478,207.89,479.7295" style="stroke:#3A5234;stroke-width:1;"/></g><!--link UC_uyeler to UC_ygiris--><g class="link" data-entity-1="UC_uyeler" data-entity-2="UC_ygiris" data-source-line="33" data-uid="lnk25" id="link_UC_uyeler_UC_ygiris"><path d="M338.11,557.8195 C358.4,551.1695 381.1,543.2995 401.5,535.1995 C438.83,520.3795 447.31,514.6295 483.5,497.1995 C496.93,490.7295 499.72,487.8895 513.5,482.1995 C525.92,477.0695 533.9261,474.0715 546.7161,469.8215" fill="none" id="UC_uyeler-to-UC_ygiris" style="stroke:#3A5234;stroke-width:1;stroke-dasharray:7,7;"/><polygon fill="#3A5234" points="552.41,467.9295,542.6078,466.9716,547.6651,469.5061,545.1305,474.5634,552.41,467.9295" style="stroke:#3A5234;stroke-width:1;"/><text fill="#2C2A27" font-family="Inter" font-size="11" lengthAdjust="spacing" textLength="50.5796" x="432.5" y="493.8557">&#171;include&#187;</text></g><!--link UC_ysikayet to UC_ygiris--><g class="link" data-entity-1="UC_ysikayet" data-entity-2="UC_ygiris" data-source-line="34" data-uid="lnk26" id="link_UC_ysikayet_UC_ygiris"><path d="M341.52,642.8195 C361.41,636.3195 383.01,627.8195 401.5,617.1995 C443.3,593.1895 454.41,584.6395 483.5,546.1995 C502.46,521.1495 490.01,503.0595 513.5,482.1995 C522.83,473.9095 528.9502,469.9993 540.8102,465.7593" fill="none" id="UC_ysikayet-to-UC_ygiris" style="stroke:#3A5234;stroke-width:1;stroke-dasharray:7,7;"/><polygon fill="#3A5234" points="546.46,463.7395,536.6387,463.0027,541.7518,465.4226,539.3318,470.5357,546.46,463.7395" style="stroke:#3A5234;stroke-width:1;"/><text fill="#2C2A27" font-family="Inter" font-size="11" lengthAdjust="spacing" textLength="50.5796" x="432.5" y="542.8557">&#171;include&#187;</text></g><!--link UC_site to UC_ygiris--><g class="link" data-entity-1="UC_site" data-entity-2="UC_ygiris" data-source-line="35" data-uid="lnk27" id="link_UC_site_UC_ygiris"><path d="M340.07,349.4095 C359.79,356.0895 381.65,363.7395 401.5,371.1995 C456.53,391.8795 513.5816,415.6842 553.7416,432.8242" fill="none" id="UC_site-to-UC_ygiris" style="stroke:#3A5234;stroke-width:1;stroke-dasharray:7,7;"/><polygon fill="#3A5234" points="559.26,435.1795,552.5525,427.9677,554.6613,433.2168,549.4122,435.3256,559.26,435.1795" style="stroke:#3A5234;stroke-width:1;"/><text fill="#2C2A27" font-family="Inter" font-size="11" lengthAdjust="spacing" textLength="50.5796" x="432.5" y="380.8557">&#171;include&#187;</text></g><!--link UC_onar to UC_ygiris--><g class="link" data-entity-1="UC_onar" data-entity-2="UC_ygiris" data-source-line="36" data-uid="lnk28" id="link_UC_onar_UC_ygiris"><path d="M367.91,423.5695 C424.02,430.6995 488.7578,438.9335 537.4978,445.1235" fill="none" id="UC_onar-to-UC_ygiris" style="stroke:#3A5234;stroke-width:1;stroke-dasharray:7,7;"/><polygon fill="#3A5234" points="543.45,445.8795,535.0257,440.7774,538.4898,445.2495,534.0178,448.7137,543.45,445.8795" style="stroke:#3A5234;stroke-width:1;"/><text fill="#2C2A27" font-family="Inter" font-size="11" lengthAdjust="spacing" textLength="50.5796" x="432.5" y="429.8557">&#171;include&#187;</text></g><!--link UC_ilerlet to UC_ygiris--><g class="link" data-entity-1="UC_ilerlet" data-entity-2="UC_ygiris" data-source-line="37" data-uid="lnk29" id="link_UC_ilerlet_UC_ygiris"><path d="M356.98,484.2195 C414.59,476.8995 485.5879,467.8765 537.5579,461.2665" fill="none" id="UC_ilerlet-to-UC_ygiris" style="stroke:#3A5234;stroke-width:1;stroke-dasharray:7,7;"/><polygon fill="#3A5234" points="543.51,460.5095,534.0772,457.677,538.55,461.1403,535.0866,465.613,543.51,460.5095" style="stroke:#3A5234;stroke-width:1;"/><text fill="#2C2A27" font-family="Inter" font-size="11" lengthAdjust="spacing" textLength="50.5796" x="432.5" y="465.8557">&#171;include&#187;</text></g><!--link UC_ysikayet to UC_gizle--><g class="link" data-entity-1="UC_ysikayet" data-entity-2="UC_gizle" data-source-line="38" data-uid="lnk30" id="link_UC_ysikayet_UC_gizle"><path d="M342.99,675.1995 C400.8,689.5395 479.1165,708.9647 535.4265,722.9347" fill="none" id="UC_ysikayet-to-UC_gizle" style="stroke:#3A5234;stroke-width:1;stroke-dasharray:7,7;"/><polygon fill="#3A5234" points="541.25,724.3795,533.478,718.33,536.3971,723.1755,531.5516,726.0946,541.25,724.3795" style="stroke:#3A5234;stroke-width:1;"/><text fill="#2C2A27" font-family="Inter" font-size="11" lengthAdjust="spacing" textLength="50.5796" x="432.5" y="695.8557">&#171;include&#187;</text></g><!--link Zam to UC_gecir--><g class="link" data-entity-1="Zam" data-entity-2="UC_gecir" data-source-line="40" data-uid="lnk31" id="link_Zam_UC_gecir"><path d="M79.14,877.0095 C110.37,870.7095 151.0283,862.5049 191.0683,854.4349" fill="none" id="Zam-to-UC_gecir" style="stroke:#3A5234;stroke-width:1;"/><polygon fill="#3A5234" points="196.95,853.2495,187.3371,851.1065,192.0486,854.2373,188.9177,858.9488,196.95,853.2495" style="stroke:#3A5234;stroke-width:1;"/></g><!--link Zam to UC_tur--><g class="link" data-entity-1="Zam" data-entity-2="UC_tur" data-source-line="41" data-uid="lnk32" id="link_Zam_UC_tur"><path d="M79.14,889.8595 C107.76,894.3995 143.3042,900.0487 180.8442,906.0087" fill="none" id="Zam-to-UC_tur" style="stroke:#3A5234;stroke-width:1;"/><polygon fill="#3A5234" points="186.77,906.9495,178.5085,901.5877,181.8318,906.1655,177.2541,909.4888,186.77,906.9495" style="stroke:#3A5234;stroke-width:1;"/></g><!--link UC_tur to UC_ozet--><g class="link" data-entity-1="UC_tur" data-entity-2="UC_ozet" data-source-line="42" data-uid="lnk33" id="link_UC_tur_UC_ozet"><path d="M370.58,934.7595 C390.62,937.2795 411.74,939.6195 431.5,941.1995 C458.06,943.3195 481.0222,944.4056 507.3722,945.1256" fill="none" id="UC_tur-to-UC_ozet" style="stroke:#3A5234;stroke-width:1;stroke-dasharray:7,7;"/><polygon fill="#3A5234" points="513.37,945.2895,504.4826,941.0451,508.3719,945.1529,504.2641,949.0421,513.37,945.2895" style="stroke:#3A5234;stroke-width:1;"/><text fill="#2C2A27" font-family="Inter" font-size="11" lengthAdjust="spacing" textLength="50.5796" x="432.5" y="937.8557">&#171;include&#187;</text></g><!--link UC_tur to UC_blok--><g class="link" data-entity-1="UC_tur" data-entity-2="UC_blok" data-source-line="43" data-uid="lnk34" id="link_UC_tur_UC_blok"><path d="M358.22,904.1395 C413.62,892.2895 480.5727,877.9642 531.9627,866.9742" fill="none" id="UC_tur-to-UC_blok" style="stroke:#3A5234;stroke-width:1;stroke-dasharray:7,7;"/><polygon fill="#3A5234" points="537.83,865.7195,528.1925,863.69,532.9406,866.7651,529.8655,871.5131,537.83,865.7195" style="stroke:#3A5234;stroke-width:1;"/><text fill="#2C2A27" font-family="Inter" font-size="11" lengthAdjust="spacing" textLength="50.5796" x="432.5" y="875.8557">&#171;include&#187;</text></g><!--link UC_gecir to UC_blok--><g class="link" data-entity-1="UC_gecir" data-entity-2="UC_blok" data-source-line="44" data-uid="lnk35" id="link_UC_gecir_UC_blok"><path d="M383.65,842.0895 C426.76,844.0995 469.9765,846.0995 510.6565,847.9995" fill="none" id="UC_gecir-to-UC_blok" style="stroke:#3A5234;stroke-width:1;stroke-dasharray:7,7;"/><polygon fill="#3A5234" points="516.65,848.2795,507.8464,843.8639,511.6554,848.0462,507.4732,851.8552,516.65,848.2795" style="stroke:#3A5234;stroke-width:1;"/><text fill="#2C2A27" font-family="Inter" font-size="11" lengthAdjust="spacing" textLength="50.5796" x="432.5" y="841.8557">&#171;include&#187;</text></g><!--link YZ to UC_ozet--><g class="link" data-entity-1="YZ" data-entity-2="UC_ozet" data-source-line="45" data-uid="lnk36" id="link_YZ_UC_ozet"><path d="M326.78,1055.8895 C389.34,1030.8695 491.8993,989.8381 551.9893,965.7981" fill="none" id="YZ-to-UC_ozet" style="stroke:#3A5234;stroke-width:1;"/><polygon fill="#3A5234" points="557.56,963.5695,547.7181,963.1986,552.9177,965.4267,550.6897,970.6263,557.56,963.5695" style="stroke:#3A5234;stroke-width:1;"/></g><!--link Yon to GMN37--><g class="link" data-entity-1="Yon" data-entity-2="GMN37" data-source-line="48" data-uid="lnk39" id="link_Yon_GMN37"><path d="M61.25,373.9495 C74.52,347.9395 94.39,313.7395 118,288.1995 C145.53,258.4195 182.08,231.7295 213.14,211.7795" fill="none" id="Yon-GMN37" style="stroke:#3A5234;stroke-width:1;stroke-dasharray:7,7;"/></g><!--SRC=[bLMnRjim4Dtr5LTF2U0uGD0f20Aq7LeWGuQcWmC3mKMYrOCeoY2f0bGHe1_HiQX7prewUPFy8_sI7YbBaHEqGIVAvBl7ktUFvrUaObac0kwC9JcZCfUH9Ii5l4aBZV3xstUuAgL4rTOv9ALc0EgsXgEpqxFZSt3DBoKinGHV11IsoD5I1hHRIw4ZAPOMR06QqiyM4j8YjbIeACBO5Xecypvu0cXWpYVxWrlCKKbqRHstzK8T6J9MvCS1ncT3FAxGGIKoX6Rh10FVaan5XvlVHf6_45NArKn2EHFu6W6iCCum5SFzEUye8GcEF0kWHjTigsQh4g407LTxt0K2b4R4QCGeTKX9Sxd4bmSeY-15wdBuzExE-NDp6DpyS8BreRrw7FeeeyFLb4EpjdO8A0UUCeGSykn-KeQEuw1maYKB4Gl5IuBWX3PKmNqfXrHC1pyakIbMieHxajmVogTWo0fkjECgJ3bTg0ojOEreoeo9o7eo3piaklBzuZPpqxasHVp5DR7stXaATH_flmyZFpPRBHm1SOMoqmCb6wwA4KofoXmoMj4WnHx670_HYEKzLLBa0auXGvcqjSvneJfX3FS5cqrFa7has0ZNXyPzrkqRrBQjT-lSb_WeTYgQ3MbEz-mr64IklP2bYd78D1KnFQdrXdK5KwYosV2ZycbolF29Jq5KtW7DrbWsdsossPHBqQW7FhRMtnBpAlCnDBygRmY7rQ1tzRJbr-5fCVT1myGuw5uMMH3u8OhuOSB9oUN8pQETlI_7cDvcextWbj7lu87Hxxwb0o7CPgCBuHmkBlQJwl8o6bto4Ywu-GMCJ-Obp3x1_qqhEEq9BE89rjVT6MIquJlSBJs5Rz_pYqO0twhdWC3y3yZyTkY5zqUa2XQg6zJ5CinYWCSX5sp8Wn_zbpSSFu3gd27KRDWx6KyDR-5g2cN5enlGyljWo9GXtNC9_negE3yk5K-e8kE58JE6VE26XwUN4-pMOhd4fMph3DBk7RHhNeCzsvhtzImIAW6VyHy0]--></g></svg>