<svg xmlns="http://www.w3.org/2000/svg" xmlns:xlink="http://www.w3.org/1999/xlink" contentStyleType="text/css" data-diagram-type="SEQUENCE" height="836px" preserveAspectRatio="none" style="width:1273px;height:836px;background:#FFFFFF;" version="1.1" viewBox="0 0 1273 836" width="1273px" zoomAndPan="magnify"><title>S&#305;ral&#305; diyagram 6 &#8212; Ayr&#305; y&#246;netici giri&#351;i ve &#252;yeyi ask&#305;ya alma</title><defs/><g><text fill="#000000" font-family="Inter" font-size="14" font-weight="bold" lengthAdjust="spacing" textLength="404.127" x="430.7914" y="28.5625">S&#305;ral&#305; diyagram 6 &#8212; Ayr&#305; y&#246;netici giri&#351;i ve &#252;yeyi ask&#305;ya alma</text><rect fill="#FBFAF7" height="144.4268" rx="4" ry="4" style="stroke:#A9A49B;stroke-width:1.5;" width="788.938" x="10" y="298.5264"/><path d="M10,344.2949 L798.938,344.2949 L798.938,438.9531 A4,4 0 0 1 794.938,442.9531 L14,442.9531 A4,4 0 0 1 10,438.9531 L10,344.2949" fill="#FBFAF7" style="stroke:none;stroke-width:1;"/><g><title>Y.netici</title><rect fill="#000000" fill-opacity="0.00000" height="637.5293" width="8" x="43.9272" y="118.6689"/><line style="stroke:#8A857C;stroke-width:0.5;stroke-dasharray:5,5;" x1="47" x2="47" y1="118.6689" y2="756.1982"/></g><g><title>istek.py</title><rect fill="#000000" fill-opacity="0.00000" height="637.5293" width="8" x="336.1743" y="118.6689"/><line style="stroke:#8A857C;stroke-width:0.5;stroke-dasharray:5,5;" x1="339.1802" x2="339.1802" y1="118.6689" y2="756.1982"/></g><g><title>yonetim_sayfalari.py</title><rect fill="#000000" fill-opacity="0.00000" height="637.5293" width="8" x="522.875" y="118.6689"/><line style="stroke:#8A857C;stroke-width:0.5;stroke-dasharray:5,5;" x1="526.7952" x2="526.7952" y1="118.6689" y2="756.1982"/></g><g><title>kullanicilar.py</title><rect fill="#000000" fill-opacity="0.00000" height="637.5293" width="8" x="801.7266" y="118.6689"/><line style="stroke:#8A857C;stroke-width:0.5;stroke-dasharray:5,5;" x1="805.6384" x2="805.6384" y1="118.6689" y2="756.1982"/></g><g><title>yonetim.py</title><rect fill="#000000" fill-opacity="0.00000" height="637.5293" width="8" x="917.8953" y="118.6689"/><line style="stroke:#8A857C;stroke-width:0.5;stroke-dasharray:5,5;" x1="921.8147" x2="921.8147" y1="118.6689" y2="756.1982"/></g><g><title>SQLite</title><rect fill="#000000" fill-opacity="0.00000" height="637.5293" width="8" x="1234.4036" y="118.6689"/><line style="stroke:#8A857C;stroke-width:0.5;stroke-dasharray:5,5;" x1="1238.0974" x2="1238.0974" y1="118.6689" y2="756.1982"/></g><g class="participant participant-head" data-participant="A"><text fill="#000000" font-family="Inter" font-size="13" lengthAdjust="spacing" textLength="49.8545" x="20" y="115.5332">Y&#246;netici</text><ellipse cx="47.9272" cy="51.4395" fill="#F1F5EF" rx="8" ry="8" style="stroke:#3A5234;stroke-width:0.5;"/><path d="M47.9272,59.4395 L47.9272,86.4395 M34.9272,67.4395 L60.9272,67.4395 M47.9272,86.4395 L34.9272,101.4395 M47.9272,86.4395 L60.9272,101.4395" fill="none" style="stroke:#3A5234;stroke-width:0.5;"/></g><g class="participant participant-tail" data-participant="A"><text fill="#000000" font-family="Inter" font-size="13" lengthAdjust="spacing" textLength="49.8545" x="20" y="767.792">Y&#246;netici</text><ellipse cx="47.9272" cy="779.4277" fill="#F1F5EF" rx="8" ry="8" style="stroke:#3A5234;stroke-width:0.5;"/><path d="M47.9272,787.4277 L47.9272,814.4277 M34.9272,795.4277 L60.9272,795.4277 M47.9272,814.4277 L34.9272,829.4277 M47.9272,814.4277 L60.9272,829.4277" fill="none" style="stroke:#3A5234;stroke-width:0.5;"/></g><g class="participant participant-head" data-participant="I"><rect fill="#F1F5EF" height="45.459" rx="4" ry="4" style="stroke:#4A6642;stroke-width:0.5;" width="61.9883" x="309.1802" y="72.21"/><text fill="#000000" font-family="Inter" font-size="13" lengthAdjust="spacing" textLength="47.9883" x="316.1802" y="91.8037">istek.py</text><text fill="#000000" font-family="Inter" font-size="13" lengthAdjust="spacing" textLength="44.5859" x="317.8813" y="107.5332">(kimlik)</text></g><g class="participant participant-tail" data-participant="I"><rect fill="#F1F5EF" height="45.459" rx="4" ry="4" style="stroke:#4A6642;stroke-width:0.5;" width="61.9883" x="309.1802" y="755.1982"/><text fill="#000000" font-family="Inter" font-size="13" lengthAdjust="spacing" textLength="47.9883" x="316.1802" y="774.792">istek.py</text><text fill="#000000" font-family="Inter" font-size="13" lengthAdjust="spacing" textLength="44.5859" x="317.8813" y="790.5215">(kimlik)</text></g><g class="participant participant-head" data-participant="W"><rect fill="#F1F5EF" height="29.7295" rx="4" ry="4" style="stroke:#4A6642;stroke-width:0.5;" width="140.1597" x="456.7952" y="87.9395"/><text fill="#000000" font-family="Inter" font-size="13" lengthAdjust="spacing" textLength="126.1597" x="463.7952" y="107.5332">yonetim_sayfalari.py</text></g><g class="participant participant-tail" data-participant="W"><rect fill="#F1F5EF" height="29.7295" rx="4" ry="4" style="stroke:#4A6642;stroke-width:0.5;" width="140.1597" x="456.7952" y="755.1982"/><text fill="#000000" font-family="Inter" font-size="13" lengthAdjust="spacing" textLength="126.1597" x="463.7952" y="774.792">yonetim_sayfalari.py</text></g><g class="participant participant-head" data-participant="K"><rect fill="#F1F5EF" height="29.7295" rx="4" ry="4" style="stroke:#4A6642;stroke-width:0.5;" width="98.1763" x="756.6384" y="87.9395"/><text fill="#000000" font-family="Inter" font-size="13" lengthAdjust="spacing" textLength="84.1763" x="763.6384" y="107.5332">kullanicilar.py</text></g><g class="participant participant-tail" data-participant="K"><rect fill="#F1F5EF" height="29.7295" rx="4" ry="4" style="stroke:#4A6642;stroke-width:0.5;" width="98.1763" x="756.6384" y="755.1982"/><text fill="#000000" font-family="Inter" font-size="13" lengthAdjust="spacing" textLength="84.1763" x="763.6384" y="774.792">kullanicilar.py</text></g><g class="participant participant-head" data-participant="YN"><rect fill="#F1F5EF" height="29.7295" rx="4" ry="4" style="stroke:#4A6642;stroke-width:0.5;" width="82.1611" x="880.8147" y="87.9395"/><text fill="#000000" font-family="Inter" font-size="13" lengthAdjust="spacing" textLength="68.1611" x="887.8147" y="107.5332">yonetim.py</text></g><g class="participant participant-tail" data-participant="YN"><rect fill="#F1F5EF" height="29.7295" rx="4" ry="4" style="stroke:#4A6642;stroke-width:0.5;" width="82.1611" x="880.8147" y="755.1982"/><text fill="#000000" font-family="Inter" font-size="13" lengthAdjust="spacing" textLength="68.1611" x="887.8147" y="774.792">yonetim.py</text></g><g class="participant participant-head" data-participant="V"><text fill="#000000" font-family="Inter" font-size="13" lengthAdjust="spacing" textLength="40.6123" x="1215.0974" y="115.5332">SQLite</text><path d="M1220.4036,66.9395 C1220.4036,56.9395 1238.4036,56.9395 1238.4036,56.9395 C1238.4036,56.9395 1256.4036,56.9395 1256.4036,66.9395 L1256.4036,92.9395 C1256.4036,102.9395 1238.4036,102.9395 1238.4036,102.9395 C1238.4036,102.9395 1220.4036,102.9395 1220.4036,92.9395 L1220.4036,66.9395" fill="#EBE7DF" style="stroke:#57534C;stroke-width:0.5;"/><path d="M1220.4036,66.9395 C1220.4036,76.9395 1238.4036,76.9395 1238.4036,76.9395 C1238.4036,76.9395 1256.4036,76.9395 1256.4036,66.9395" fill="none" style="stroke:#57534C;stroke-width:0.5;"/></g><g class="participant participant-tail" data-participant="V"><text fill="#000000" font-family="Inter" font-size="13" lengthAdjust="spacing" textLength="40.6123" x="1215.0974" y="767.792">SQLite</text><path d="M1220.4036,780.9277 C1220.4036,770.9277 1238.4036,770.9277 1238.4036,770.9277 C1238.4036,770.9277 1256.4036,770.9277 1256.4036,780.9277 L1256.4036,806.9277 C1256.4036,816.9277 1238.4036,816.9277 1238.4036,816.9277 C1238.4036,816.9277 1220.4036,816.9277 1220.4036,806.9277 L1220.4036,780.9277" fill="#EBE7DF" style="stroke:#57534C;stroke-width:0.5;"/><path d="M1220.4036,780.9277 C1220.4036,790.9277 1238.4036,790.9277 1238.4036,790.9277 C1238.4036,790.9277 1256.4036,790.9277 1256.4036,780.9277" fill="none" style="stroke:#57534C;stroke-width:0.5;"/></g><g class="message" data-participant-1="A" data-participant-2="I"><polygon fill="#3A5234" points="328.1743,143.9785,338.1743,147.9785,328.1743,151.9785,332.1743,147.9785" style="stroke:#3A5234;stroke-width:1;"/><line style="stroke:#3A5234;stroke-width:1;" x1="47.9272" x2="334.1743" y1="147.9785" y2="147.9785"/><text fill="#2C2A27" font-family="Inter" font-size="11" font-weight="bold" lengthAdjust="spacing" textLength="4.7427" x="54.9272" y="143.3252">1</text><text fill="#2C2A27" font-family="Inter" font-size="11" lengthAdjust="spacing" textLength="106.8472" x="63.6699" y="143.3252">GET /yonetim/uyeler</text></g><g class="message" data-participant-1="I" data-participant-2="I"><line style="stroke:#3A5234;stroke-width:1;" x1="340.1743" x2="382.1743" y1="188.5977" y2="188.5977"/><line style="stroke:#3A5234;stroke-width:1;" x1="382.1743" x2="382.1743" y1="188.5977" y2="201.5977"/><line style="stroke:#3A5234;stroke-width:1;" x1="341.1743" x2="382.1743" y1="201.5977" y2="201.5977"/><polygon fill="#3A5234" points="351.1743,197.5977,341.1743,201.5977,351.1743,205.5977,347.1743,201.5977" style="stroke:#3A5234;stroke-width:1;"/><text fill="#2C2A27" font-family="Inter" font-size="11" font-weight="bold" lengthAdjust="spacing" textLength="6.9287" x="347.1743" y="177.2896">2</text><text fill="#2C2A27" font-family="Inter" font-size="11" lengthAdjust="spacing" textLength="161.772" x="358.103" y="170.6348">/yonetim alt&#305;nda kimlik yaln&#305;zca</text><text fill="#2C2A27" font-family="Inter" font-size="11" lengthAdjust="spacing" textLength="152.7646" x="358.103" y="183.9443">y&#246;netici oturumundan okunur</text></g><g class="message" data-participant-1="I" data-participant-2="A"><polygon fill="#3A5234" points="58.9272,224.9072,48.9272,228.9072,58.9272,232.9072,54.9272,228.9072" style="stroke:#3A5234;stroke-width:1;"/><line style="stroke:#3A5234;stroke-width:1;stroke-dasharray:2,2;" x1="52.9272" x2="339.1743" y1="228.9072" y2="228.9072"/><text fill="#2C2A27" font-family="Inter" font-size="11" font-weight="bold" lengthAdjust="spacing" textLength="7.1006" x="64.9272" y="224.2539">3</text><text fill="#2C2A27" font-family="Inter" font-size="11" lengthAdjust="spacing" textLength="257.1465" x="76.0278" y="224.2539">302 &#8594; /yonetim/giris (&#252;ye oturumu paneli a&#231;maz)</text></g><g class="message" data-participant-1="A" data-participant-2="W"><polygon fill="#3A5234" points="514.875,252.2168,524.875,256.2168,514.875,260.2168,518.875,256.2168" style="stroke:#3A5234;stroke-width:1;"/><line style="stroke:#3A5234;stroke-width:1;" x1="47.9272" x2="520.875" y1="256.2168" y2="256.2168"/><text fill="#2C2A27" font-family="Inter" font-size="11" font-weight="bold" lengthAdjust="spacing" textLength="7.439" x="54.9272" y="251.5635">4</text><text fill="#2C2A27" font-family="Inter" font-size="11" lengthAdjust="spacing" textLength="227.2617" x="66.3662" y="251.5635">POST /yonetim/giris (takma ad, &#351;ifre, CSRF)</text></g><g class="message" data-participant-1="W" data-participant-2="K"><polygon fill="#3A5234" points="793.7266,279.5264,803.7266,283.5264,793.7266,287.5264,797.7266,283.5264" style="stroke:#3A5234;stroke-width:1;"/><line style="stroke:#3A5234;stroke-width:1;" x1="526.875" x2="799.7266" y1="283.5264" y2="283.5264"/><text fill="#2C2A27" font-family="Inter" font-size="11" font-weight="bold" lengthAdjust="spacing" textLength="7.0308" x="533.875" y="278.873">5</text><text fill="#2C2A27" font-family="Inter" font-size="11" lengthAdjust="spacing" textLength="243.8208" x="544.9058" y="278.873">giris(takma ad, &#351;ifre) &#8212; hatal&#305; denemeler say&#305;l&#305;r</text></g><path d="M14,298.5264 L70.8311,298.5264 L70.8311,306.2559 L60.8311,316.2559 L10,316.2559 L10,302.5264 A4,4 0 0 1 14,298.5264" fill="#F6F4EF" style="stroke:#A9A49B;stroke-width:1.5;"/><rect fill="none" height="144.4268" rx="4" ry="4" style="stroke:#A9A49B;stroke-width:1.5;" width="788.938" x="10" y="298.5264"/><text fill="#000000" font-family="Inter" font-size="13" font-weight="bold" lengthAdjust="spacing" textLength="15.8311" x="25" y="312.1201">alt</text><text fill="#000000" font-family="Inter" font-size="13" font-weight="bold" lengthAdjust="spacing" textLength="137.1094" x="85.8311" y="313.1201">[hesap y&#246;netici de&#287;il]</text><g class="message" data-participant-1="W" data-participant-2="A"><polygon fill="#3A5234" points="58.9272,332.2949,48.9272,336.2949,58.9272,340.2949,54.9272,336.2949" style="stroke:#3A5234;stroke-width:1;"/><line style="stroke:#3A5234;stroke-width:1;stroke-dasharray:2,2;" x1="52.9272" x2="525.875" y1="336.2949" y2="336.2949"/><text fill="#2C2A27" font-family="Inter" font-size="11" font-weight="bold" lengthAdjust="spacing" textLength="7.1436" x="64.9272" y="331.6416">6</text><text fill="#2C2A27" font-family="Inter" font-size="11" lengthAdjust="spacing" textLength="130.9902" x="76.0708" y="331.6416">"Bu hesap y&#246;netici de&#287;il"</text></g><line style="stroke:#A9A49B;stroke-width:1;stroke-dasharray:2,2;" x1="10" x2="798.938" y1="345.2949" y2="345.2949"/><text fill="#000000" font-family="Inter" font-size="13" font-weight="bold" lengthAdjust="spacing" textLength="60.8931" x="15" y="357.8887">[y&#246;netici]</text><g class="message" data-participant-1="W" data-participant-2="W"><line style="stroke:#3A5234;stroke-width:1;" x1="526.875" x2="568.875" y1="394.6436" y2="394.6436"/><line style="stroke:#3A5234;stroke-width:1;" x1="568.875" x2="568.875" y1="394.6436" y2="407.6436"/><line style="stroke:#3A5234;stroke-width:1;" x1="527.875" x2="568.875" y1="407.6436" y2="407.6436"/><polygon fill="#3A5234" points="537.875,403.6436,527.875,407.6436,537.875,411.6436,533.875,407.6436" style="stroke:#3A5234;stroke-width:1;"/><text fill="#2C2A27" font-family="Inter" font-size="11" font-weight="bold" lengthAdjust="spacing" textLength="6.397" x="533.875" y="383.3354">7</text><text fill="#2C2A27" font-family="Inter" font-size="11" lengthAdjust="spacing" textLength="242.666" x="544.272" y="376.6807">y&#246;netici oturumu (yonetici_id, oturum s&#252;r&#252;m&#252;);</text><text fill="#2C2A27" font-family="Inter" font-size="11" lengthAdjust="spacing" textLength="144.8745" x="544.272" y="389.9902">&#252;ye oturumuna dokunulmaz</text></g><g class="message" data-participant-1="W" data-participant-2="A"><polygon fill="#3A5234" points="58.9272,430.9531,48.9272,434.9531,58.9272,438.9531,54.9272,434.9531" style="stroke:#3A5234;stroke-width:1;"/><line style="stroke:#3A5234;stroke-width:1;stroke-dasharray:2,2;" x1="52.9272" x2="525.875" y1="434.9531" y2="434.9531"/><text fill="#2C2A27" font-family="Inter" font-size="11" font-weight="bold" lengthAdjust="spacing" textLength="7.1597" x="64.9272" y="430.2998">8</text><text fill="#2C2A27" font-family="Inter" font-size="11" lengthAdjust="spacing" textLength="118.959" x="76.0869" y="430.2998">302 &#8594; /yonetim/uyeler</text></g><g class="message" data-participant-1="A" data-participant-2="W"><polygon fill="#3A5234" points="514.875,465.2627,524.875,469.2627,514.875,473.2627,518.875,469.2627" style="stroke:#3A5234;stroke-width:1;"/><line style="stroke:#3A5234;stroke-width:1;" x1="47.9272" x2="520.875" y1="469.2627" y2="469.2627"/><text fill="#2C2A27" font-family="Inter" font-size="11" font-weight="bold" lengthAdjust="spacing" textLength="7.1436" x="54.9272" y="464.6094">9</text><text fill="#2C2A27" font-family="Inter" font-size="11" lengthAdjust="spacing" textLength="205.8311" x="66.0708" y="464.6094">POST /yonetim/uye/7/aski (g&#252;n, neden)</text></g><g class="message" data-participant-1="W" data-participant-2="YN"><polygon fill="#3A5234" points="909.8953,492.5723,919.8953,496.5723,909.8953,500.5723,913.8953,496.5723" style="stroke:#3A5234;stroke-width:1;"/><line style="stroke:#3A5234;stroke-width:1;" x1="526.875" x2="915.8953" y1="496.5723" y2="496.5723"/><text fill="#2C2A27" font-family="Inter" font-size="11" font-weight="bold" lengthAdjust="spacing" textLength="12.1602" x="533.875" y="491.9189">10</text><text fill="#2C2A27" font-family="Inter" font-size="11" lengthAdjust="spacing" textLength="173.1479" x="550.0352" y="491.9189">askiya_al(yonetici, 7, g&#252;n, neden)</text></g><g class="message" data-participant-1="YN" data-participant-2="YN"><line style="stroke:#3A5234;stroke-width:1;" x1="921.8953" x2="963.8953" y1="537.1914" y2="537.1914"/><line style="stroke:#3A5234;stroke-width:1;" x1="963.8953" x2="963.8953" y1="537.1914" y2="550.1914"/><line style="stroke:#3A5234;stroke-width:1;" x1="922.8953" x2="963.8953" y1="550.1914" y2="550.1914"/><polygon fill="#3A5234" points="932.8953,546.1914,922.8953,550.1914,932.8953,554.1914,928.8953,550.1914" style="stroke:#3A5234;stroke-width:1;"/><text fill="#2C2A27" font-family="Inter" font-size="11" font-weight="bold" lengthAdjust="spacing" textLength="9.4854" x="928.8953" y="525.8833">11</text><text fill="#2C2A27" font-family="Inter" font-size="11" lengthAdjust="spacing" textLength="241.9893" x="942.3806" y="519.2285">kendisi, ba&#351;ka bir y&#246;netici ya da YZ hesab&#305; m&#305;?</text><text fill="#2C2A27" font-family="Inter" font-size="11" lengthAdjust="spacing" textLength="145.2505" x="942.3806" y="532.5381">neden en az 10 karakter mi?</text></g><g class="message" data-participant-1="YN" data-participant-2="V"><polygon fill="#3A5234" points="1226.4036,573.501,1236.4036,577.501,1226.4036,581.501,1230.4036,577.501" style="stroke:#3A5234;stroke-width:1;"/><line style="stroke:#3A5234;stroke-width:1;" x1="921.8953" x2="1232.4036" y1="577.501" y2="577.501"/><text fill="#2C2A27" font-family="Inter" font-size="11" font-weight="bold" lengthAdjust="spacing" textLength="11.6714" x="928.8953" y="572.8477">12</text><text fill="#2C2A27" font-family="Inter" font-size="11" lengthAdjust="spacing" textLength="189.7231" x="944.5667" y="572.8477">UPDATE kullanicilar SET askida_bitis</text></g><g class="message" data-participant-1="YN" data-participant-2="V"><polygon fill="#3A5234" points="1226.4036,600.8105,1236.4036,604.8105,1226.4036,608.8105,1230.4036,604.8105" style="stroke:#3A5234;stroke-width:1;"/><line style="stroke:#3A5234;stroke-width:1;" x1="921.8953" x2="1232.4036" y1="604.8105" y2="604.8105"/><text fill="#2C2A27" font-family="Inter" font-size="11" font-weight="bold" lengthAdjust="spacing" textLength="11.8433" x="928.8953" y="600.1572">13</text><text fill="#2C2A27" font-family="Inter" font-size="11" lengthAdjust="spacing" textLength="276.665" x="944.7385" y="600.1572">&#351;effafl&#305;k g&#252;nl&#252;&#287;&#252; + defter kuyru&#287;una YONETIM blo&#287;u</text></g><g class="message" data-participant-1="YN" data-participant-2="V"><polygon fill="#3A5234" points="1226.4036,628.1201,1236.4036,632.1201,1226.4036,636.1201,1230.4036,632.1201" style="stroke:#3A5234;stroke-width:1;"/><line style="stroke:#3A5234;stroke-width:1;" x1="921.8953" x2="1232.4036" y1="632.1201" y2="632.1201"/><text fill="#2C2A27" font-family="Inter" font-size="11" font-weight="bold" lengthAdjust="spacing" textLength="12.1816" x="928.8953" y="627.4668">14</text><text fill="#2C2A27" font-family="Inter" font-size="11" lengthAdjust="spacing" textLength="72.6924" x="945.0769" y="627.4668">&#252;yeye bildirim</text></g><g class="message" data-participant-1="W" data-participant-2="V"><polygon fill="#3A5234" points="1226.4036,655.4297,1236.4036,659.4297,1226.4036,663.4297,1230.4036,659.4297" style="stroke:#3A5234;stroke-width:1;"/><line style="stroke:#3A5234;stroke-width:1;" x1="526.875" x2="1232.4036" y1="659.4297" y2="659.4297"/><text fill="#2C2A27" font-family="Inter" font-size="11" font-weight="bold" lengthAdjust="spacing" textLength="11.7734" x="533.875" y="654.7764">15</text><text fill="#2C2A27" font-family="Inter" font-size="11" lengthAdjust="spacing" textLength="46.374" x="549.6484" y="654.7764">COMMIT</text></g><g class="message" data-participant-1="W" data-participant-2="A"><polygon fill="#3A5234" points="58.9272,682.7393,48.9272,686.7393,58.9272,690.7393,54.9272,686.7393" style="stroke:#3A5234;stroke-width:1;"/><line style="stroke:#3A5234;stroke-width:1;stroke-dasharray:2,2;" x1="52.9272" x2="525.875" y1="686.7393" y2="686.7393"/><text fill="#2C2A27" font-family="Inter" font-size="11" font-weight="bold" lengthAdjust="spacing" textLength="11.8862" x="64.9272" y="682.0859">16</text><text fill="#2C2A27" font-family="Inter" font-size="11" lengthAdjust="spacing" textLength="139.1274" x="80.8135" y="682.0859">&#252;ye sayfas&#305;, "ask&#305;ya al&#305;nd&#305;"</text></g><path d="M24,703.7393 L24,736.7393 A4,4 0 0 0 28,740.7393 L1256,740.7393 A4,4 0 0 0 1260,736.7393 L1260,709.7393 L1250,699.7393 L28,699.7393 A4,4 0 0 0 24,703.7393" fill="#EBE7DF" style="stroke:#A9A49B;stroke-width:0.5;"/><path d="M1250,699.7393 L1250,707.7393 A2,2 0 0 0 1252,709.7393 L1260,709.7393 L1250,699.7393" fill="#EBE7DF" style="stroke:#A9A49B;stroke-width:0.5;"/><text fill="#000000" font-family="Inter" font-size="13" lengthAdjust="spacing" textLength="298.0542" x="482.2833" y="717.333">Ask&#305;daki &#252;ye okuyabilir; yazamaz ve oy veremez</text><text fill="#000000" font-family="Inter" font-size="13" lengthAdjust="spacing" textLength="311.1431" x="482.2833" y="733.0625">(istek zincirindeki "ask&#305;" ad&#305;m&#305; POST'lar&#305; durdurur).</text><!--SRC=[TLJDRjD04BxxAGPVI4He2aXKeX9LA0L5q1z8Q1KKAHh7ctRbzJfQxrPoJfnu0CGzHyw-SFBDxelqIPXTnqsYK6bboRFV_7tVx3pXSYfCo62IQYxsk8c5fxaM30PLhb1KEOGymsk5CRo6-n-_ePSfCcRbNyaqdtAuvehVBJdSCYYBZ6KSC8sgF4D04QE7HYVIn05J7avrei0VDQu-8Q7dpL7PlpbA3JvFDOlsvjbOjY8U2nwr7Qg_ZSeI6o6Uf9ZDKA3YvE5mLzkuo0Y1adu9qq0-_JTKSpiwyqBK663Am1zy-SmrS_PBp-l1yxVGXpVmyMG8tPLVrsHCK6_zvhAveEvrbSiGeUu3CXIooXTJ7CirUOasoiI6O1AIo4ZZ8b6e7eLwjVyIxd_-MkUoLAVGiZGtda1TC46SbtzYNBJh8g_8-U9yCDpnr1Z5f4lO0L9ifbW7ZWTVFxIzA-lrYRmSRWVMTiBV42zk7fXaiMqQYFug9nD9ApJSi1Jd6uCHich9XGTKJjEH_yuy0lCz9eZo1tFjLhUoGnUqwhwcVCAfoDeAQLceieZBedqubfiSIOJGaKlpkDYgPuVXbPfCXeynIOZkGPT6d4FhkYna1oGZHbOSZix8mLvcE47nK6O73ZgmXIPW0uye6qy94-3TCa88kDfecTuHpT3ek-Cj8FhZAZyQInS6wE02Nkn3X0eZJPB4_6WL-v92VxjutnkUmEOpW05Dhwqmn4d0DKytu7TBDflXZ1IDNBMYBAfbMS0p4cbceqScKwPQMaP7vsSdm_uf128XmqOGjmGOTI526gQuviLU79-VdlQ7tffzfv5xmccLTy1VxmtxSAhSzsIYISLRojphk1Wz2mcHoAy5feAGCd5rI4GjaFIrUoZ9wAjeI1UqHjn6WGNjEIf7XenywqpqhYa9qUaKVahSsE4sYevHxRr_]--></g></svg>