<svg xmlns="http://www.w3.org/2000/svg" xmlns:xlink="http://www.w3.org/1999/xlink" contentStyleType="text/css" data-diagram-type="CLASS" height="547px" preserveAspectRatio="none" style="width:733px;height:547px;background:#FFFFFF;" version="1.1" viewBox="0 0 733 547" width="733px" zoomAndPan="magnify"><title>Agora &#8212; S&#305;n&#305;f diyagram&#305; (4/4): kay&#305;t defteri (Observer + Repository) ve anl&#305;k bildirim (Adapter)</title><defs/><g><g class="title" data-source-line="2"><text fill="#000000" font-family="Inter" font-size="14" font-weight="bold" lengthAdjust="spacing" textLength="642.127" x="38.4365" y="23.5625">Agora &#8212; S&#305;n&#305;f diyagram&#305; (4/4): kay&#305;t defteri (Observer + Repository) ve anl&#305;k bildirim (Adapter)</text></g><!--cluster veritabani.py + defter.py ? Observer + Repository--><g class="cluster" data-entity="veritabani.py . defter.py . Observer . Repository" data-source-line="6" data-uid="ent0002" id="cluster_veritabani.py . defter.py . Observer . Repository"><path d="M10,43.9395 L329.2485,43.9395 A6,6 0 0 1 333.2485,47.9395 L340.2485,65.6689 L453,65.6689 A4,4 0 0 1 457,69.6689 L457,536.9395 A4,4 0 0 1 453,540.9395 L10,540.9395 A4,4 0 0 1 6,536.9395 L6,47.9395 A4,4 0 0 1 10,43.9395" fill="#FBFAF7" style="stroke:#A9A49B;stroke-width:1.5;"/><line style="stroke:#A9A49B;stroke-width:1.5;" x1="6" x2="340.2485" y1="65.6689" y2="65.6689"/><text fill="#000000" font-family="Inter" font-size="13" font-weight="bold" lengthAdjust="spacing" textLength="321.2485" x="10" y="58.5332">veritabani.py + defter.py &#8212; Observer + Repository</text></g><!--cluster anlik.py ? Adapter--><g class="cluster" data-entity="anlik.py . Adapter" data-source-line="37" data-uid="ent0014" id="cluster_anlik.py . Adapter"><path d="M485,65.9395 L604.1895,65.9395 A6,6 0 0 1 608.1895,69.9395 L615.1895,87.6689 L722,87.6689 A4,4 0 0 1 726,91.6689 L726,536.9395 A4,4 0 0 1 722,540.9395 L485,540.9395 A4,4 0 0 1 481,536.9395 L481,69.9395 A4,4 0 0 1 485,65.9395" fill="#FBFAF7" style="stroke:#A9A49B;stroke-width:1.5;"/><line style="stroke:#A9A49B;stroke-width:1.5;" x1="481" x2="615.1895" y1="87.6689" y2="87.6689"/><text fill="#000000" font-family="Inter" font-size="13" font-weight="bold" lengthAdjust="spacing" textLength="121.1895" x="485" y="80.5332">anlik.py &#8212; Adapter</text></g><!--class Baglanti--><g class="entity" data-entity="Baglanti" data-source-line="7" data-uid="ent0003" id="entity_Baglanti"><rect fill="#F6F4EF" height="98.5977" rx="4" ry="4" style="stroke:#4A6642;stroke-width:0.5;" width="177.8125" x="263" y="99.9395"/><rect fill="#E3EBDF" height="24.5195" rx="4" ry="4" style="stroke:#E3EBDF;stroke-width:0.5;" width="177.8125" x="263" y="99.9395"/><rect fill="#E3EBDF" height="4" style="stroke:#E3EBDF;stroke-width:0.5;" width="177.8125" x="263" y="120.459"/><rect fill="none" height="98.5977" rx="4" ry="4" style="stroke:#4A6642;stroke-width:0.5;" width="177.8125" x="263" y="99.9395"/><text fill="#000000" font-family="Inter" font-size="12" lengthAdjust="spacing" textLength="45.5156" x="329.1484" y="116.5645">Baglanti</text><line style="stroke:#4A6642;stroke-width:0.5;" x1="264" x2="439.8125" y1="124.459" y2="124.459"/><ellipse cx="274" cy="137.2188" fill="none" rx="3" ry="3" style="stroke:#038048;stroke-width:1;"/><text fill="#000000" font-family="Inter" font-size="12" lengthAdjust="spacing" textLength="119.4668" x="282" y="140.084">defter_kuyrugu : liste</text><line style="stroke:#4A6642;stroke-width:0.5;" x1="264" x2="439.8125" y1="146.9785" y2="146.9785"/><ellipse cx="274" cy="159.7383" fill="#84BE84" rx="3" ry="3" style="stroke:#038048;stroke-width:1;"/><text fill="#000000" font-family="Inter" font-size="12" lengthAdjust="spacing" textLength="50.6602" x="282" y="162.6035">commit()</text><ellipse cx="274" cy="174.2578" fill="#84BE84" rx="3" ry="3" style="stroke:#038048;stroke-width:1;"/><text fill="#000000" font-family="Inter" font-size="12" lengthAdjust="spacing" textLength="53.8066" x="282" y="177.123">rollback()</text><ellipse cx="274" cy="188.7773" fill="#84BE84" rx="3" ry="3" style="stroke:#038048;stroke-width:1;"/><text fill="#000000" font-family="Inter" font-size="12" lengthAdjust="spacing" textLength="152.8125" x="282" y="191.6426">kayit_noktasi() &#171;Memento&#187;</text></g><!--class abone--><g class="entity" data-entity="abone" data-source-line="13" data-uid="ent0004" id="entity_abone"><rect fill="#F6F4EF" height="56.249" rx="4" ry="4" style="stroke:#4A6642;stroke-width:0.5;" width="104.8242" x="261.5" y="330.9395"/><rect fill="#E3EBDF" height="40.249" rx="4" ry="4" style="stroke:#E3EBDF;stroke-width:0.5;" width="104.8242" x="261.5" y="330.9395"/><rect fill="#E3EBDF" height="4" style="stroke:#E3EBDF;stroke-width:0.5;" width="104.8242" x="261.5" y="367.1885"/><rect fill="none" height="56.249" rx="4" ry="4" style="stroke:#4A6642;stroke-width:0.5;" width="104.8242" x="261.5" y="330.9395"/><text fill="#000000" font-family="Inter" font-size="13" font-style="italic" lengthAdjust="spacing" textLength="71.9888" x="277.9177" y="348.5332">&#171;Observer&#187;</text><text fill="#000000" font-family="Inter" font-size="12" lengthAdjust="spacing" textLength="98.8242" x="264.5" y="363.2939">commit_aboneligi</text><line style="stroke:#4A6642;stroke-width:0.5;" x1="262.5" x2="365.3242" y1="371.1885" y2="371.1885"/><line style="stroke:#4A6642;stroke-width:0.5;" x1="262.5" x2="365.3242" y1="379.1885" y2="379.1885"/></g><!--class defter--><g class="entity" data-entity="defter" data-source-line="15" data-uid="ent0006" id="entity_defter"><rect fill="#F6F4EF" height="143.3662" rx="4" ry="4" style="stroke:#4A6642;stroke-width:0.5;" width="206.1016" x="22" y="77.9395"/><rect fill="#E3EBDF" height="40.249" rx="4" ry="4" style="stroke:#E3EBDF;stroke-width:0.5;" width="206.1016" x="22" y="77.9395"/><rect fill="#E3EBDF" height="4" style="stroke:#E3EBDF;stroke-width:0.5;" width="206.1016" x="22" y="114.1885"/><rect fill="none" height="143.3662" rx="4" ry="4" style="stroke:#4A6642;stroke-width:0.5;" width="206.1016" x="22" y="77.9395"/><text fill="#000000" font-family="Inter" font-size="13" font-style="italic" lengthAdjust="spacing" textLength="53.1489" x="98.4763" y="95.5332">&#171;mod&#252;l&#187;</text><text fill="#000000" font-family="Inter" font-size="12" lengthAdjust="spacing" textLength="34.2246" x="107.9385" y="110.2939">defter</text><line style="stroke:#4A6642;stroke-width:0.5;" x1="23" x2="227.1016" y1="118.1885" y2="118.1885"/><line style="stroke:#4A6642;stroke-width:0.5;" x1="23" x2="227.1016" y1="126.1885" y2="126.1885"/><ellipse cx="33" cy="138.9482" fill="#84BE84" rx="3" ry="3" style="stroke:#038048;stroke-width:1;"/><text fill="#000000" font-family="Inter" font-size="12" lengthAdjust="spacing" textLength="160.793" x="41" y="141.8135">ekle(db, tur, veri) &#171;kuyru&#287;a&#187;</text><ellipse cx="33" cy="153.4678" fill="#84BE84" rx="3" ry="3" style="stroke:#038048;stroke-width:1;"/><text fill="#000000" font-family="Inter" font-size="12" lengthAdjust="spacing" textLength="174.5977" x="41" y="156.333">_islem_kaydedildi(db) &#171;abone&#187;</text><ellipse cx="33" cy="167.9873" fill="#84BE84" rx="3" ry="3" style="stroke:#038048;stroke-width:1;"/><text fill="#000000" font-family="Inter" font-size="12" lengthAdjust="spacing" textLength="181.1016" x="41" y="170.8525">dugumlere_yaz(kaynak, kuyruk)</text><ellipse cx="33" cy="182.5068" fill="#84BE84" rx="3" ry="3" style="stroke:#038048;stroke-width:1;"/><text fill="#000000" font-family="Inter" font-size="12" lengthAdjust="spacing" textLength="85.8047" x="41" y="185.3721">durum(kaynak)</text><ellipse cx="33" cy="197.0264" fill="#84BE84" rx="3" ry="3" style="stroke:#038048;stroke-width:1;"/><text fill="#000000" font-family="Inter" font-size="12" lengthAdjust="spacing" textLength="95.6953" x="41" y="199.8916">onar(kaynak, ad)</text><ellipse cx="33" cy="211.5459" fill="#84BE84" rx="3" ry="3" style="stroke:#038048;stroke-width:1;"/><text fill="#000000" font-family="Inter" font-size="12" lengthAdjust="spacing" textLength="112.6641" x="41" y="214.4111">makbuz_dogrula(...)</text></g><!--class DugumDeposu--><g class="entity" data-entity="DugumDeposu" data-source-line="24" data-uid="ent0008" id="entity_DugumDeposu"><rect fill="#F6F4EF" height="127.6367" rx="4" ry="4" style="stroke:#4A6642;stroke-width:0.5;" width="133.3867" x="58.5" y="294.9395"/><rect fill="#E3EBDF" height="24.5195" rx="4" ry="4" style="stroke:#E3EBDF;stroke-width:0.5;" width="133.3867" x="58.5" y="294.9395"/><rect fill="#E3EBDF" height="4" style="stroke:#E3EBDF;stroke-width:0.5;" width="133.3867" x="58.5" y="315.459"/><rect fill="none" height="127.6367" rx="4" ry="4" style="stroke:#4A6642;stroke-width:0.5;" width="133.3867" x="58.5" y="294.9395"/><text fill="#000000" font-family="Inter" font-size="12" font-style="italic" lengthAdjust="spacing" textLength="84.2754" x="83.0557" y="311.5645">DugumDeposu</text><line style="stroke:#4A6642;stroke-width:0.5;" x1="59.5" x2="190.8867" y1="319.459" y2="319.459"/><line style="stroke:#4A6642;stroke-width:0.5;" x1="59.5" x2="190.8867" y1="327.459" y2="327.459"/><ellipse cx="69.5" cy="340.2188" fill="#84BE84" rx="3" ry="3" style="stroke:#038048;stroke-width:1;"/><text fill="#000000" font-family="Inter" font-size="12" font-style="italic" lengthAdjust="spacing" textLength="47.5957" x="77.5" y="343.084">bloklar()</text><ellipse cx="69.5" cy="354.7383" fill="#84BE84" rx="3" ry="3" style="stroke:#038048;stroke-width:1;"/><text fill="#000000" font-family="Inter" font-size="12" font-style="italic" lengthAdjust="spacing" textLength="55.7227" x="77.5" y="357.6035">ekle(yeni)</text><ellipse cx="69.5" cy="369.2578" fill="#84BE84" rx="3" ry="3" style="stroke:#038048;stroke-width:1;"/><text fill="#000000" font-family="Inter" font-size="12" font-style="italic" lengthAdjust="spacing" textLength="108.3867" x="77.5" y="372.123">yeniden_kur(zincir)</text><ellipse cx="69.5" cy="383.7773" fill="#84BE84" rx="3" ry="3" style="stroke:#038048;stroke-width:1;"/><text fill="#000000" font-family="Inter" font-size="12" font-style="italic" lengthAdjust="spacing" textLength="44.3145" x="77.5" y="386.6426">surum()</text><ellipse cx="69.5" cy="398.2969" fill="#84BE84" rx="3" ry="3" style="stroke:#038048;stroke-width:1;"/><text fill="#000000" font-family="Inter" font-size="12" lengthAdjust="spacing" textLength="58.8809" x="77.5" y="401.1621">son_blok()</text><ellipse cx="69.5" cy="412.8164" fill="#84BE84" rx="3" ry="3" style="stroke:#038048;stroke-width:1;"/><text fill="#000000" font-family="Inter" font-size="12" lengthAdjust="spacing" textLength="68.9473" x="77.5" y="415.6816">bul(anahtar)</text></g><!--class SqliteDugumDeposu--><g class="entity" data-entity="SqliteDugumDeposu" data-source-line="32" data-uid="ent0009" id="entity_SqliteDugumDeposu"><rect fill="#F6F4EF" height="40.5195" rx="4" ry="4" style="stroke:#4A6642;stroke-width:0.5;" width="122.1328" x="39" y="483.9395"/><rect fill="#E3EBDF" height="24.5195" rx="4" ry="4" style="stroke:#E3EBDF;stroke-width:0.5;" width="122.1328" x="39" y="483.9395"/><rect fill="#E3EBDF" height="4" style="stroke:#E3EBDF;stroke-width:0.5;" width="122.1328" x="39" y="504.459"/><rect fill="none" height="40.5195" rx="4" ry="4" style="stroke:#4A6642;stroke-width:0.5;" width="122.1328" x="39" y="483.9395"/><text fill="#000000" font-family="Inter" font-size="12" lengthAdjust="spacing" textLength="116.1328" x="42" y="500.5645">SqliteDugumDeposu</text><line style="stroke:#4A6642;stroke-width:0.5;" x1="40" x2="160.1328" y1="508.459" y2="508.459"/><line style="stroke:#4A6642;stroke-width:0.5;" x1="40" x2="160.1328" y1="516.459" y2="516.459"/></g><!--class BellekDugumDeposu--><g class="entity" data-entity="BellekDugumDeposu" data-source-line="33" data-uid="ent0011" id="entity_BellekDugumDeposu"><rect fill="#F6F4EF" height="40.5195" rx="4" ry="4" style="stroke:#4A6642;stroke-width:0.5;" width="124.5938" x="196.5" y="483.9395"/><rect fill="#E3EBDF" height="24.5195" rx="4" ry="4" style="stroke:#E3EBDF;stroke-width:0.5;" width="124.5938" x="196.5" y="483.9395"/><rect fill="#E3EBDF" height="4" style="stroke:#E3EBDF;stroke-width:0.5;" width="124.5938" x="196.5" y="504.459"/><rect fill="none" height="40.5195" rx="4" ry="4" style="stroke:#4A6642;stroke-width:0.5;" width="124.5938" x="196.5" y="483.9395"/><text fill="#000000" font-family="Inter" font-size="12" lengthAdjust="spacing" textLength="118.5938" x="199.5" y="500.5645">BellekDugumDeposu</text><line style="stroke:#4A6642;stroke-width:0.5;" x1="197.5" x2="320.0938" y1="508.459" y2="508.459"/><line style="stroke:#4A6642;stroke-width:0.5;" x1="197.5" x2="320.0938" y1="516.459" y2="516.459"/></g><!--class AnlikKanal--><g class="entity" data-entity="AnlikKanal" data-source-line="38" data-uid="ent0015" id="entity_AnlikKanal"><rect fill="#F6F4EF" height="98.5977" rx="4" ry="4" style="stroke:#4A6642;stroke-width:0.5;" width="191.5293" x="507" y="99.9395"/><rect fill="#E3EBDF" height="24.5195" rx="4" ry="4" style="stroke:#E3EBDF;stroke-width:0.5;" width="191.5293" x="507" y="99.9395"/><rect fill="#E3EBDF" height="4" style="stroke:#E3EBDF;stroke-width:0.5;" width="191.5293" x="507" y="120.459"/><rect fill="none" height="98.5977" rx="4" ry="4" style="stroke:#4A6642;stroke-width:0.5;" width="191.5293" x="507" y="99.9395"/><text fill="#000000" font-family="Inter" font-size="12" font-style="italic" lengthAdjust="spacing" textLength="60.5801" x="572.4746" y="116.5645">AnlikKanal</text><line style="stroke:#4A6642;stroke-width:0.5;" x1="508" x2="697.5293" y1="124.459" y2="124.459"/><ellipse cx="518" cy="137.2188" fill="none" rx="3" ry="3" style="stroke:#038048;stroke-width:1;"/><text fill="#000000" font-family="Inter" font-size="12" lengthAdjust="spacing" textLength="21.1289" x="526" y="140.084">kod</text><line style="stroke:#4A6642;stroke-width:0.5;" x1="508" x2="697.5293" y1="146.9785" y2="146.9785"/><ellipse cx="518" cy="159.7383" fill="#84BE84" rx="3" ry="3" style="stroke:#038048;stroke-width:1;"/><text fill="#000000" font-family="Inter" font-size="12" font-style="italic" lengthAdjust="spacing" textLength="71.1094" x="526" y="162.6035">etkin(klasor)</text><ellipse cx="518" cy="174.2578" fill="#84BE84" rx="3" ry="3" style="stroke:#038048;stroke-width:1;"/><text fill="#000000" font-family="Inter" font-size="12" font-style="italic" lengthAdjust="spacing" textLength="104.332" x="526" y="177.123">abonelik_coz(veri)</text><ellipse cx="518" cy="188.7773" fill="#84BE84" rx="3" ry="3" style="stroke:#038048;stroke-width:1;"/><text fill="#000000" font-family="Inter" font-size="12" font-style="italic" lengthAdjust="spacing" textLength="166.5293" x="526" y="191.6426">gonder(klasor, abonelik, yuk)</text></g><!--class WebPushKanali--><g class="entity" data-entity="WebPushKanali" data-source-line="44" data-uid="ent0016" id="entity_WebPushKanali"><rect fill="#F6F4EF" height="40.5195" rx="4" ry="4" style="stroke:#4A6642;stroke-width:0.5;" width="94.7988" x="497.5" y="338.4395"/><rect fill="#E3EBDF" height="24.5195" rx="4" ry="4" style="stroke:#E3EBDF;stroke-width:0.5;" width="94.7988" x="497.5" y="338.4395"/><rect fill="#E3EBDF" height="4" style="stroke:#E3EBDF;stroke-width:0.5;" width="94.7988" x="497.5" y="358.959"/><rect fill="none" height="40.5195" rx="4" ry="4" style="stroke:#4A6642;stroke-width:0.5;" width="94.7988" x="497.5" y="338.4395"/><text fill="#000000" font-family="Inter" font-size="12" lengthAdjust="spacing" textLength="88.7988" x="500.5" y="355.0645">WebPushKanali</text><line style="stroke:#4A6642;stroke-width:0.5;" x1="498.5" x2="591.2988" y1="362.959" y2="362.959"/><line style="stroke:#4A6642;stroke-width:0.5;" x1="498.5" x2="591.2988" y1="370.959" y2="370.959"/></g><!--class FcmKanali--><g class="entity" data-entity="FcmKanali" data-source-line="45" data-uid="ent0018" id="entity_FcmKanali"><rect fill="#F6F4EF" height="40.5195" rx="4" ry="4" style="stroke:#4A6642;stroke-width:0.5;" width="64.8926" x="627.5" y="338.4395"/><rect fill="#E3EBDF" height="24.5195" rx="4" ry="4" style="stroke:#E3EBDF;stroke-width:0.5;" width="64.8926" x="627.5" y="338.4395"/><rect fill="#E3EBDF" height="4" style="stroke:#E3EBDF;stroke-width:0.5;" width="64.8926" x="627.5" y="358.959"/><rect fill="none" height="40.5195" rx="4" ry="4" style="stroke:#4A6642;stroke-width:0.5;" width="64.8926" x="627.5" y="338.4395"/><text fill="#000000" font-family="Inter" font-size="12" lengthAdjust="spacing" textLength="58.8926" x="630.5" y="355.0645">FcmKanali</text><line style="stroke:#4A6642;stroke-width:0.5;" x1="628.5" x2="691.3926" y1="362.959" y2="362.959"/><line style="stroke:#4A6642;stroke-width:0.5;" x1="628.5" x2="691.3926" y1="370.959" y2="370.959"/></g><!--class pywebpush--><g class="entity" data-entity="pywebpush" data-source-line="46" data-uid="ent0020" id="entity_pywebpush"><rect fill="#F6F4EF" height="40.5195" rx="4" ry="4" style="stroke:#4A6642;stroke-width:0.5;" width="72.1289" x="497" y="483.9395"/><rect fill="#E3EBDF" height="24.5195" rx="4" ry="4" style="stroke:#E3EBDF;stroke-width:0.5;" width="72.1289" x="497" y="483.9395"/><rect fill="#E3EBDF" height="4" style="stroke:#E3EBDF;stroke-width:0.5;" width="72.1289" x="497" y="504.459"/><rect fill="none" height="40.5195" rx="4" ry="4" style="stroke:#4A6642;stroke-width:0.5;" width="72.1289" x="497" y="483.9395"/><text fill="#000000" font-family="Inter" font-size="12" lengthAdjust="spacing" textLength="66.1289" x="500" y="500.5645">pywebpush</text><line style="stroke:#4A6642;stroke-width:0.5;" x1="498" x2="568.1289" y1="508.459" y2="508.459"/><line style="stroke:#4A6642;stroke-width:0.5;" x1="498" x2="568.1289" y1="516.459" y2="516.459"/></g><!--class Firebase HTTP v1--><g class="entity" data-entity="Firebase HTTP v1" data-source-line="47" data-uid="ent0022" id="entity_Firebase HTTP v1"><rect fill="#F6F4EF" height="40.5195" rx="4" ry="4" style="stroke:#4A6642;stroke-width:0.5;" width="105.3691" x="604.5" y="483.9395"/><rect fill="#E3EBDF" height="24.5195" rx="4" ry="4" style="stroke:#E3EBDF;stroke-width:0.5;" width="105.3691" x="604.5" y="483.9395"/><rect fill="#E3EBDF" height="4" style="stroke:#E3EBDF;stroke-width:0.5;" width="105.3691" x="604.5" y="504.459"/><rect fill="none" height="40.5195" rx="4" ry="4" style="stroke:#4A6642;stroke-width:0.5;" width="105.3691" x="604.5" y="483.9395"/><text fill="#000000" font-family="Inter" font-size="12" lengthAdjust="spacing" textLength="99.3691" x="607.5" y="500.5645">Firebase HTTP v1</text><line style="stroke:#4A6642;stroke-width:0.5;" x1="605.5" x2="708.8691" y1="508.459" y2="508.459"/><line style="stroke:#4A6642;stroke-width:0.5;" x1="605.5" x2="708.8691" y1="516.459" y2="516.459"/></g><!--link Baglanti to abone--><g class="link" data-entity-1="Baglanti" data-entity-2="abone" data-source-line="14" data-uid="lnk5" id="link_Baglanti_abone"><path codeLine="14" d="M343.09,199.0895 C335.57,240.1795 326.1506,291.5976 320.0406,324.9676" fill="none" id="Baglanti-to-abone" style="stroke:#3A5234;stroke-width:1;stroke-dasharray:7,7;"/><polygon fill="#3A5234" points="318.96,330.8695,324.5155,322.737,319.8605,325.9512,316.6464,321.2962,318.96,330.8695" style="stroke:#3A5234;stroke-width:1;"/><text fill="#2C2A27" font-family="Inter" font-size="11" lengthAdjust="spacing" textLength="51.7236" x="351.2449" y="255.5957">commit'te</text><text fill="#2C2A27" font-family="Inter" font-size="11" lengthAdjust="spacing" textLength="84.2134" x="335" y="268.9053">aboneleri &#231;a&#287;&#305;r&#305;r</text></g><!--link defter to abone--><g class="link" data-entity-1="defter" data-entity-2="abone" data-source-line="23" data-uid="lnk7" id="link_defter_abone"><path codeLine="23" d="M190.94,221.0095 C198.07,228.7295 205.2,236.4895 212,243.9395 C238.85,273.3695 257.2994,293.989 277.8794,317.169" fill="none" id="defter-to-abone" style="stroke:#3A5234;stroke-width:1;stroke-dasharray:7,7;"/><polygon fill="none" points="289.83,330.6295,282.3662,313.1855,273.3926,321.1526,289.83,330.6295" style="stroke:#3A5234;stroke-width:1;"/><text fill="#2C2A27" font-family="Inter" font-size="11" lengthAdjust="spacing" textLength="55.4189" x="238" y="262.0957">abone olur</text></g><!--reverse link DugumDeposu to SqliteDugumDeposu--><g class="link" data-entity-1="DugumDeposu" data-entity-2="SqliteDugumDeposu" data-source-line="32" data-uid="lnk10" id="link_DugumDeposu_SqliteDugumDeposu"><path codeLine="32" d="M110.8697,441.0322 C107.0497,462.9522 106.14,468.2095 103.4,483.9095" fill="none" id="DugumDeposu-backto-SqliteDugumDeposu" style="stroke:#3A5234;stroke-width:1;"/><polygon fill="none" points="113.96,423.2995,104.9588,440.0021,116.7806,442.0623,113.96,423.2995" style="stroke:#3A5234;stroke-width:1;"/></g><!--reverse link DugumDeposu to BellekDugumDeposu--><g class="link" data-entity-1="DugumDeposu" data-entity-2="BellekDugumDeposu" data-source-line="33" data-uid="lnk12" id="link_DugumDeposu_BellekDugumDeposu"><path codeLine="33" d="M196.4486,436.4521 C216.9286,458.3721 226.1,468.2095 240.76,483.9095" fill="none" id="DugumDeposu-backto-BellekDugumDeposu" style="stroke:#3A5234;stroke-width:1;"/><polygon fill="none" points="184.16,423.2995,192.0644,440.5483,200.8328,432.3559,184.16,423.2995" style="stroke:#3A5234;stroke-width:1;"/></g><!--link defter to DugumDeposu--><g class="link" data-entity-1="defter" data-entity-2="DugumDeposu" data-source-line="34" data-uid="lnk13" id="link_defter_DugumDeposu"><path codeLine="34" d="M125,220.9795 C125,244.9495 125,265.5595 125,288.8995" fill="none" id="defter-to-DugumDeposu" style="stroke:#3A5234;stroke-width:1;"/><polygon fill="#3A5234" points="125,294.8995,129,285.8995,125,289.8995,121,285.8995,125,294.8995" style="stroke:#3A5234;stroke-width:1;"/><text fill="#2C2A27" font-family="Inter" font-size="11" lengthAdjust="spacing" textLength="80.7544" x="126" y="262.0957">d&#252;&#287;&#252;m A &#183; B &#183; C</text><text fill="#2C2A27" font-family="Inter" font-size="11" lengthAdjust="spacing" textLength="6.7944" x="118.6767" y="284.4384">3</text></g><!--reverse link AnlikKanal to WebPushKanali--><g class="link" data-entity-1="AnlikKanal" data-entity-2="WebPushKanali" data-source-line="44" data-uid="lnk17" id="link_AnlikKanal_WebPushKanali"><path codeLine="44" d="M584.5538,216.4248 C572.1638,260.7448 559.34,306.6295 550.49,338.2895" fill="none" id="AnlikKanal-backto-WebPushKanali" style="stroke:#3A5234;stroke-width:1;"/><polygon fill="none" points="589.4,199.0895,578.7753,214.8094,590.3322,218.0402,589.4,199.0895" style="stroke:#3A5234;stroke-width:1;"/></g><!--reverse link AnlikKanal to FcmKanali--><g class="link" data-entity-1="AnlikKanal" data-entity-2="FcmKanali" data-source-line="45" data-uid="lnk19" id="link_AnlikKanal_FcmKanali"><path codeLine="45" d="M621.1299,216.446 C633.3099,260.766 645.91,306.6295 654.6,338.2895" fill="none" id="AnlikKanal-backto-FcmKanali" style="stroke:#3A5234;stroke-width:1;"/><polygon fill="none" points="616.36,199.0895,615.3444,218.0359,626.9154,214.856,616.36,199.0895" style="stroke:#3A5234;stroke-width:1;"/></g><!--link WebPushKanali to pywebpush--><g class="link" data-entity-1="WebPushKanali" data-entity-2="pywebpush" data-source-line="46" data-uid="lnk21" id="link_WebPushKanali_pywebpush"><path codeLine="46" d="M543.36,379.5895 C541.07,406.9195 537.4612,450.1404 535.1612,477.5804" fill="none" id="WebPushKanali-to-pywebpush" style="stroke:#3A5234;stroke-width:1;stroke-dasharray:7,7;"/><polygon fill="#3A5234" points="534.66,483.5595,539.3978,474.925,535.0776,478.5769,531.4257,474.2568,534.66,483.5595" style="stroke:#3A5234;stroke-width:1;"/><text fill="#2C2A27" font-family="Inter" font-size="11" lengthAdjust="spacing" textLength="35.9863" x="538" y="457.5957">uyarlar</text></g><!--link FcmKanali to Firebase HTTP v1--><g class="link" data-entity-1="FcmKanali" data-entity-2="Firebase HTTP v1" data-source-line="47" data-uid="lnk23" id="link_FcmKanali_Firebase HTTP v1"><path codeLine="47" d="M659.59,379.5895 C659.02,406.9195 658.1146,450.1207 657.5446,477.5607" fill="none" id="FcmKanali-to-Firebase HTTP v1" style="stroke:#3A5234;stroke-width:1;stroke-dasharray:7,7;"/><polygon fill="#3A5234" points="657.42,483.5595,661.6061,474.6445,657.5238,478.5605,653.6078,474.4783,657.42,483.5595" style="stroke:#3A5234;stroke-width:1;"/><text fill="#2C2A27" font-family="Inter" font-size="11" lengthAdjust="spacing" textLength="35.9863" x="659" y="457.5957">uyarlar</text></g><!--SRC=[RLF1Qjj04BtxAwQwLAAsIaboCS7WD8H2AGrDe9U267adogBLhhgxIf4JGp-YznnxwCcd7ffJeY_fbtHNaXMdCHXRUlDcvitpp0ik5w9Y18cnNCIyAiJ8SYi8vfdI27-__u2pPYsRzGKmNcEciMZM4Ew_te-ca6FTh2qmkh2aEOGVKqFwYZIyWazKAiEjqdK4LmGeHRFE8UM2SSqB2ESCIvSKZKpEPOckB4Z5o509UmTRe4QPUt3_O3GgSP5ZHX2u5jnYYfB7PUsQTGByizUxKqK0roE0XK1Zu0WpWTBo5e8XFychMbTP1LCGt5ZgWmjL5Do6KV-gbH2f4p80pWHk4wboYuQ74Tp_-a05IQlk_pZ6QkWQT8KIJ9KamJCU01fet-3mS2DwDdC9Wy0udlMCQQ_ZfQKliYlXBN_uYSrjizRkyzYe6wSjtpsw-eLY3tTYDXjcfbnGoD8ns4gFmJlgfRSMDBVOQlUqX1j1HUA6PCJyl-ToFB6LCB2OiwrmWYYfSHawiiHy36snF1eukYhws0PJ4lL0HxQ12ypJQfambUbAO1Z7STHRsSyJnpUFndI_IbJU0aoDrRYmlHV7NjYntu9gcFnwmrb1AbGkd8JeUQZrfoR9TyGyp4YwXT7XqbqGrpj8ffrt4p1A9hxR0AIL257YfKMz6MvRxE7DP09dNmMtj0Nl8XsH49G_9VKsJIOp2FQ29pbJS8lGt3xS5J27-zzmvB_UZbPRv-MEbUURQ-eFjRkV_zoTU-9xDuKOpCqLs-6bTVSSEgUDskLKVn5vib3BiDt4vvnCIKQwhp4UKiPGTnlc_TkIqphpcTBJobos2DyHFraKG-m9jxsxeAo_KLewC72cLJLgjocEEMHrh1EkAKL3yExy_1IktcoJL_y0]--></g></svg>