<svg xmlns="http://www.w3.org/2000/svg" xmlns:xlink="http://www.w3.org/1999/xlink" contentStyleType="text/css" data-diagram-type="SEQUENCE" height="395px" preserveAspectRatio="none" style="width:411px;height:395px;background:#FFFFFF;" version="1.1" viewBox="0 0 411 395" width="411px" zoomAndPan="magnify"><title>S&#305;ral&#305; diyagram &#8212; Oy verme</title><defs/><g><text fill="#000000" font-family="Inter" font-size="14" font-weight="bold" lengthAdjust="spacing" textLength="189.0342" x="114.249" y="28.5625">S&#305;ral&#305; diyagram &#8212; Oy verme</text><g><title>.ye</title><rect fill="#000000" fill-opacity="0.00000" height="196.8574" width="8" x="16.2795" y="118.6689"/><line style="stroke:#8A857C;stroke-width:0.5;stroke-dasharray:5,5;" x1="20" x2="20" y1="118.6689" y2="315.5264"/></g><g><title>Web</title><rect fill="#000000" fill-opacity="0.00000" height="196.8574" width="8" x="72.8875" y="118.6689"/><line style="stroke:#8A857C;stroke-width:0.5;stroke-dasharray:5,5;" x1="76.7131" x2="76.7131" y1="118.6689" y2="315.5264"/></g><g><title>Oylama</title><rect fill="#000000" fill-opacity="0.00000" height="196.8574" width="8" x="150.2529" y="118.6689"/><line style="stroke:#8A857C;stroke-width:0.5;stroke-dasharray:5,5;" x1="154.0618" x2="154.0618" y1="118.6689" y2="315.5264"/></g><g><title>Veritaban.</title><rect fill="#000000" fill-opacity="0.00000" height="196.8574" width="8" x="260.793" y="118.6689"/><line style="stroke:#8A857C;stroke-width:0.5;stroke-dasharray:5,5;" x1="264.6768" x2="264.6768" y1="118.6689" y2="315.5264"/></g><g><title>Kay.t defteri</title><rect fill="#000000" fill-opacity="0.00000" height="196.8574" width="8" x="357.2207" y="118.6689"/><line style="stroke:#8A857C;stroke-width:0.5;stroke-dasharray:5,5;" x1="360.9092" x2="360.9092" y1="118.6689" y2="315.5264"/></g><g class="participant participant-head" data-participant="U"><text fill="#000000" font-family="Inter" font-size="13" lengthAdjust="spacing" textLength="24.5591" x="5" y="115.5332">&#220;ye</text><ellipse cx="20.2795" cy="51.4395" fill="#F1F5EF" rx="8" ry="8" style="stroke:#3A5234;stroke-width:0.5;"/><path d="M20.2795,59.4395 L20.2795,86.4395 M7.2795,67.4395 L33.2795,67.4395 M20.2795,86.4395 L7.2795,101.4395 M20.2795,86.4395 L33.2795,101.4395" fill="none" style="stroke:#3A5234;stroke-width:0.5;"/></g><g class="participant participant-tail" data-participant="U"><text fill="#000000" font-family="Inter" font-size="13" lengthAdjust="spacing" textLength="24.5591" x="5" y="327.1201">&#220;ye</text><ellipse cx="20.2795" cy="338.7559" fill="#F1F5EF" rx="8" ry="8" style="stroke:#3A5234;stroke-width:0.5;"/><path d="M20.2795,346.7559 L20.2795,373.7559 M7.2795,354.7559 L33.2795,354.7559 M20.2795,373.7559 L7.2795,388.7559 M20.2795,373.7559 L33.2795,388.7559" fill="none" style="stroke:#3A5234;stroke-width:0.5;"/></g><g class="participant participant-head" data-participant="W"><rect fill="#F1F5EF" height="29.7295" rx="4" ry="4" style="stroke:#4A6642;stroke-width:0.5;" width="42.3486" x="55.7131" y="87.9395"/><text fill="#000000" font-family="Inter" font-size="13" lengthAdjust="spacing" textLength="28.3486" x="62.7131" y="107.5332">Web</text></g><g class="participant participant-tail" data-participant="W"><rect fill="#F1F5EF" height="29.7295" rx="4" ry="4" style="stroke:#4A6642;stroke-width:0.5;" width="42.3486" x="55.7131" y="314.5264"/><text fill="#000000" font-family="Inter" font-size="13" lengthAdjust="spacing" textLength="28.3486" x="62.7131" y="334.1201">Web</text></g><g class="participant participant-head" data-participant="O"><rect fill="#F1F5EF" height="29.7295" rx="4" ry="4" style="stroke:#4A6642;stroke-width:0.5;" width="60.3823" x="124.0618" y="87.9395"/><text fill="#000000" font-family="Inter" font-size="13" lengthAdjust="spacing" textLength="46.3823" x="131.0618" y="107.5332">Oylama</text></g><g class="participant participant-tail" data-participant="O"><rect fill="#F1F5EF" height="29.7295" rx="4" ry="4" style="stroke:#4A6642;stroke-width:0.5;" width="60.3823" x="124.0618" y="314.5264"/><text fill="#000000" font-family="Inter" font-size="13" lengthAdjust="spacing" textLength="46.3823" x="131.0618" y="334.1201">Oylama</text></g><g class="participant participant-head" data-participant="V"><text fill="#000000" font-family="Inter" font-size="13" lengthAdjust="spacing" textLength="62.2324" x="230.6768" y="115.5332">Veritaban&#305;</text><path d="M246.793,66.9395 C246.793,56.9395 264.793,56.9395 264.793,56.9395 C264.793,56.9395 282.793,56.9395 282.793,66.9395 L282.793,92.9395 C282.793,102.9395 264.793,102.9395 264.793,102.9395 C264.793,102.9395 246.793,102.9395 246.793,92.9395 L246.793,66.9395" fill="#EBE7DF" style="stroke:#57534C;stroke-width:0.5;"/><path d="M246.793,66.9395 C246.793,76.9395 264.793,76.9395 264.793,76.9395 C264.793,76.9395 282.793,76.9395 282.793,66.9395" fill="none" style="stroke:#57534C;stroke-width:0.5;"/></g><g class="participant participant-tail" data-participant="V"><text fill="#000000" font-family="Inter" font-size="13" lengthAdjust="spacing" textLength="62.2324" x="230.6768" y="327.1201">Veritaban&#305;</text><path d="M246.793,340.2559 C246.793,330.2559 264.793,330.2559 264.793,330.2559 C264.793,330.2559 282.793,330.2559 282.793,340.2559 L282.793,366.2559 C282.793,376.2559 264.793,376.2559 264.793,376.2559 C264.793,376.2559 246.793,376.2559 246.793,366.2559 L246.793,340.2559" fill="#EBE7DF" style="stroke:#57534C;stroke-width:0.5;"/><path d="M246.793,340.2559 C246.793,350.2559 264.793,350.2559 264.793,350.2559 C264.793,350.2559 282.793,350.2559 282.793,340.2559" fill="none" style="stroke:#57534C;stroke-width:0.5;"/></g><g class="participant participant-head" data-participant="D"><rect fill="#F1F5EF" height="29.7295" rx="4" ry="4" style="stroke:#4A6642;stroke-width:0.5;" width="88.623" x="316.9092" y="87.9395"/><text fill="#000000" font-family="Inter" font-size="13" lengthAdjust="spacing" textLength="74.623" x="323.9092" y="107.5332">Kay&#305;t defteri</text></g><g class="participant participant-tail" data-participant="D"><rect fill="#F1F5EF" height="29.7295" rx="4" ry="4" style="stroke:#4A6642;stroke-width:0.5;" width="88.623" x="316.9092" y="314.5264"/><text fill="#000000" font-family="Inter" font-size="13" lengthAdjust="spacing" textLength="74.623" x="323.9092" y="334.1201">Kay&#305;t defteri</text></g><g class="message" data-participant-1="U" data-participant-2="W"><polygon fill="#3A5234" points="64.8875,143.9785,74.8875,147.9785,64.8875,151.9785,68.8875,147.9785" style="stroke:#3A5234;stroke-width:1;"/><line style="stroke:#3A5234;stroke-width:1;" x1="20.2795" x2="70.8875" y1="147.9785" y2="147.9785"/><text fill="#2C2A27" font-family="Inter" font-size="11" lengthAdjust="spacing" textLength="32.6079" x="27.2795" y="143.3252">oy ver</text></g><g class="message" data-participant-1="W" data-participant-2="O"><polygon fill="#3A5234" points="142.2529,171.2881,152.2529,175.2881,142.2529,179.2881,146.2529,175.2881" style="stroke:#3A5234;stroke-width:1;"/><line style="stroke:#3A5234;stroke-width:1;" x1="76.8875" x2="148.2529" y1="175.2881" y2="175.2881"/><text fill="#2C2A27" font-family="Inter" font-size="11" lengthAdjust="spacing" textLength="42.5552" x="83.8875" y="170.6348">oy_ver()</text></g><g class="message" data-participant-1="O" data-participant-2="O"><line style="stroke:#3A5234;stroke-width:1;" x1="154.2529" x2="196.2529" y1="202.5977" y2="202.5977"/><line style="stroke:#3A5234;stroke-width:1;" x1="196.2529" x2="196.2529" y1="202.5977" y2="215.5977"/><line style="stroke:#3A5234;stroke-width:1;" x1="155.2529" x2="196.2529" y1="215.5977" y2="215.5977"/><polygon fill="#3A5234" points="165.2529,211.5977,155.2529,215.5977,165.2529,219.5977,161.2529,215.5977" style="stroke:#3A5234;stroke-width:1;"/><text fill="#2C2A27" font-family="Inter" font-size="11" lengthAdjust="spacing" textLength="96.54" x="161.2529" y="197.9443">oy hakk&#305; ve a&#287;&#305;rl&#305;&#287;&#305;</text></g><g class="message" data-participant-1="O" data-participant-2="V"><polygon fill="#3A5234" points="252.793,238.9072,262.793,242.9072,252.793,246.9072,256.793,242.9072" style="stroke:#3A5234;stroke-width:1;"/><line style="stroke:#3A5234;stroke-width:1;" x1="154.2529" x2="258.793" y1="242.9072" y2="242.9072"/><text fill="#2C2A27" font-family="Inter" font-size="11" lengthAdjust="spacing" textLength="57.519" x="161.2529" y="238.2539">oyu kaydet</text></g><g class="message" data-participant-1="O" data-participant-2="D"><polygon fill="#3A5234" points="349.2207,266.2168,359.2207,270.2168,349.2207,274.2168,353.2207,270.2168" style="stroke:#3A5234;stroke-width:1;"/><line style="stroke:#3A5234;stroke-width:1;" x1="154.2529" x2="355.2207" y1="270.2168" y2="270.2168"/><text fill="#2C2A27" font-family="Inter" font-size="11" lengthAdjust="spacing" textLength="111.1118" x="161.2529" y="265.5635">taahh&#252;d&#252; deftere yaz</text></g><g class="message" data-participant-1="O" data-participant-2="U"><polygon fill="#3A5234" points="31.2795,293.5264,21.2795,297.5264,31.2795,301.5264,27.2795,297.5264" style="stroke:#3A5234;stroke-width:1;"/><line style="stroke:#3A5234;stroke-width:1;stroke-dasharray:2,2;" x1="25.2795" x2="153.2529" y1="297.5264" y2="297.5264"/><text fill="#2C2A27" font-family="Inter" font-size="11" lengthAdjust="spacing" textLength="70.1304" x="37.2795" y="292.873">makbuz kodu</text></g><!--SRC=[LOynJiGm44Lxds981GLx00ggxIXSe2JbQX8FnBAJh9pnIjwAGr0YSORqsyKduIJONYIqrVZ__qQUVwUdtdf5S5XOsvtsenMisHAynjMXZIie7V3TuGW_7vyW0vp8ZIImvzd1zXK8S85Q7D6nxlKH9uQgfQxATdjhos1nn998eP2nmuMWQiZf_9xYMhBcTki5GrmP5Brn0Wkn5wA6nsTeuGdcSf5eivP57vA-Vn3otu41ZKbLJkdO-9sAfLvvNfccC1uC1aLyzVR9OyHXs2vgk_nzJX3mdFC4r0aOqNJ-36PM_XS0]--></g></svg>